<svg xmlns="http://www.w3.org/2000/svg" xmlns:xlink="http://www.w3.org/1999/xlink" width="500" zoomAndPan="magnify" viewBox="0 0 375 374.999991" height="500" preserveAspectRatio="xMidYMid meet" version="1.0"><defs><clipPath id="33ca389def"><path d="M 8.820312 177 L 24 177 L 24 196 L 8.820312 196 Z M 8.820312 177 " clip-rule="nonzero"/></clipPath><clipPath id="8886adccae"><path d="M 32 156.523438 L 48 156.523438 L 48 177 L 32 177 Z M 32 156.523438 " clip-rule="nonzero"/></clipPath><clipPath id="f2a095b77b"><path d="M 129 205 L 139 205 L 139 218.277344 L 129 218.277344 Z M 129 205 " clip-rule="nonzero"/></clipPath><clipPath id="ffa948cf28"><path d="M 139 209 L 148 209 L 148 218.277344 L 139 218.277344 Z M 139 209 " clip-rule="nonzero"/></clipPath><clipPath id="f93f96a058"><path d="M 148 206 L 154 206 L 154 218.277344 L 148 218.277344 Z M 148 206 " clip-rule="nonzero"/></clipPath><clipPath id="2d4de14aa9"><path d="M 159 205 L 171 205 L 171 218.277344 L 159 218.277344 Z M 159 205 " clip-rule="nonzero"/></clipPath><clipPath id="d6879363cd"><path d="M 172 209 L 180 209 L 180 218.277344 L 172 218.277344 Z M 172 209 " clip-rule="nonzero"/></clipPath><clipPath id="fc9a4e5ac8"><path d="M 182 209 L 188 209 L 188 218.277344 L 182 218.277344 Z M 182 209 " clip-rule="nonzero"/></clipPath><clipPath id="e698b95c1c"><path d="M 187 209 L 196 209 L 196 218.277344 L 187 218.277344 Z M 187 209 " clip-rule="nonzero"/></clipPath><clipPath id="9a6cf79995"><path d="M 202 205 L 212 205 L 212 218.277344 L 202 218.277344 Z M 202 205 " clip-rule="nonzero"/></clipPath><clipPath id="f698dcb3e5"><path d="M 213 209 L 219 209 L 219 218.277344 L 213 218.277344 Z M 213 209 " clip-rule="nonzero"/></clipPath><clipPath id="d6464f0afe"><path d="M 218 209 L 228 209 L 228 218.277344 L 218 218.277344 Z M 218 209 " clip-rule="nonzero"/></clipPath><clipPath id="64e8826f4d"><path d="M 228 205 L 234 205 L 234 218.277344 L 228 218.277344 Z M 228 205 " clip-rule="nonzero"/></clipPath><clipPath id="0efc23fd91"><path d="M 234 209 L 243 209 L 243 218.277344 L 234 218.277344 Z M 234 209 " clip-rule="nonzero"/></clipPath><clipPath id="14c49ab5a3"><path d="M 243 209 L 251 209 L 251 218.277344 L 243 218.277344 Z M 243 209 " clip-rule="nonzero"/></clipPath><clipPath id="6ba6aab789"><path d="M 251 209 L 259 209 L 259 218.277344 L 251 218.277344 Z M 251 209 " clip-rule="nonzero"/></clipPath><clipPath id="4bbbe423dd"><path d="M 259 205 L 262 205 L 262 218.277344 L 259 218.277344 Z M 259 205 " clip-rule="nonzero"/></clipPath><clipPath id="edc39f9fd6"><path d="M 262 209 L 273 209 L 273 218.277344 L 262 218.277344 Z M 262 209 " clip-rule="nonzero"/></clipPath><clipPath id="0e9e676b35"><path d="M 274 209 L 282 209 L 282 218.277344 L 274 218.277344 Z M 274 209 " clip-rule="nonzero"/></clipPath><clipPath id="b91010c8c6"><path d="M 283 209 L 291 209 L 291 218.277344 L 283 218.277344 Z M 283 209 " clip-rule="nonzero"/></clipPath><clipPath id="2632f0981c"><path d="M 293 205 L 295 205 L 295 218.277344 L 293 218.277344 Z M 293 205 " clip-rule="nonzero"/></clipPath><clipPath id="13d89db168"><path d="M 296 209 L 303 209 L 303 218.277344 L 296 218.277344 Z M 296 209 " clip-rule="nonzero"/></clipPath><clipPath id="ac0d939aa8"><path d="M 356 162 L 365.820312 162 L 365.820312 172 L 356 172 Z M 356 162 " clip-rule="nonzero"/></clipPath></defs><rect x="-37.5" width="450" fill="#ffffff" y="-37.499999" height="449.999989" fill-opacity="1"/><rect x="-37.5" width="450" fill="#ffffff" y="-37.499999" height="449.999989" fill-opacity="1"/><path fill="#233cb5" d="M 21.773438 159.53125 C 25.257812 158.894531 28.839844 159.710938 30.273438 167.53125 C 31.757812 175.664062 27.726562 179.582031 24.71875 180.128906 C 21.710938 180.675781 18.105469 178.398438 16.789062 171.210938 C 15.476562 164.019531 19.472656 159.945312 21.769531 159.53125 " fill-opacity="1" fill-rule="nonzero"/><g clip-path="url(#33ca389def)"><path fill="#233cb5" d="M 17.464844 195.582031 C 21.128906 194.914062 23.617188 190.167969 23.039062 187.007812 C 22.78125 185.59375 22.449219 184.8125 20.339844 183.542969 C 17.824219 182.027344 16.027344 177.371094 13.695312 177.796875 C 11.359375 178.222656 8.027344 181.144531 8.996094 186.46875 C 9.964844 191.796875 12.714844 196.445312 17.464844 195.578125 " fill-opacity="1" fill-rule="nonzero"/></g><g clip-path="url(#8886adccae)"><path fill="#233cb5" d="M 38.035156 156.570312 C 34.554688 157.203125 31.488281 159.230469 32.917969 167.050781 C 34.40625 175.183594 39.558594 177.429688 42.566406 176.878906 C 45.578125 176.332031 48.140625 172.929688 46.828125 165.742188 C 45.515625 158.554688 40.328125 156.152344 38.035156 156.570312 " fill-opacity="1" fill-rule="nonzero"/></g><path fill="#233cb5" d="M 54.832031 188.777344 C 51.164062 189.445312 47.15625 185.878906 46.578125 182.71875 C 46.320312 181.304688 46.355469 180.460938 47.878906 178.53125 C 49.695312 176.222656 49.730469 171.234375 52.0625 170.8125 C 54.394531 170.386719 58.554688 171.949219 59.527344 177.273438 C 60.5 182.601562 59.582031 187.917969 54.832031 188.78125 " fill-opacity="1" fill-rule="nonzero"/><path fill="#233cb5" d="M 49.460938 190.015625 C 48.933594 189.882812 48.433594 189.6875 47.957031 189.425781 C 47.484375 189.167969 47.050781 188.851562 46.65625 188.476562 C 46.265625 188.105469 45.925781 187.6875 45.640625 187.226562 C 45.359375 186.769531 45.136719 186.277344 44.980469 185.761719 C 42.882812 180.359375 37.855469 176.925781 33.550781 177.625 L 33.488281 177.636719 C 33.464844 177.636719 33.445312 177.640625 33.421875 177.644531 C 29.148438 178.511719 25.660156 183.496094 25.609375 189.289062 C 25.648438 189.828125 25.613281 190.363281 25.511719 190.894531 C 25.40625 191.425781 25.238281 191.933594 25.003906 192.421875 C 24.765625 192.90625 24.472656 193.355469 24.121094 193.765625 C 23.769531 194.179688 23.371094 194.535156 22.925781 194.84375 C 21.039062 196.304688 18.449219 198.148438 19.136719 201.890625 C 19.820312 205.632812 26.457031 208.976562 30.207031 208.292969 C 33.875 207.625 34.851562 204.410156 38.246094 203.660156 C 41.6875 203.167969 43.742188 205.832031 47.410156 205.160156 C 51.15625 204.476562 56.183594 199.007812 55.5 195.265625 C 54.8125 191.527344 51.738281 190.710938 49.460938 190.007812 " fill-opacity="1" fill-rule="nonzero"/><path fill="#233cb5" d="M 76.109375 177.714844 L 70.191406 177.714844 C 69.816406 177.714844 69.453125 177.640625 69.105469 177.5 C 68.757812 177.355469 68.449219 177.152344 68.183594 176.886719 C 67.917969 176.621094 67.714844 176.3125 67.570312 175.964844 C 67.425781 175.621094 67.351562 175.257812 67.351562 174.882812 C 67.351562 174.507812 67.425781 174.144531 67.570312 173.796875 C 67.714844 173.453125 67.917969 173.144531 68.183594 172.878906 C 68.449219 172.613281 68.757812 172.410156 69.105469 172.265625 C 69.453125 172.121094 69.816406 172.050781 70.191406 172.050781 L 88.179688 172.050781 C 88.554688 172.050781 88.917969 172.121094 89.265625 172.265625 C 89.613281 172.410156 89.917969 172.613281 90.183594 172.878906 C 90.453125 173.144531 90.65625 173.453125 90.800781 173.796875 C 90.945312 174.144531 91.015625 174.507812 91.015625 174.882812 C 91.015625 175.257812 90.945312 175.621094 90.800781 175.964844 C 90.65625 176.3125 90.453125 176.621094 90.183594 176.886719 C 89.917969 177.152344 89.613281 177.355469 89.265625 177.5 C 88.917969 177.640625 88.554688 177.714844 88.179688 177.714844 L 82.261719 177.714844 L 82.261719 197.136719 C 82.261719 197.542969 82.183594 197.9375 82.027344 198.3125 C 81.871094 198.6875 81.648438 199.019531 81.363281 199.308594 C 81.074219 199.597656 80.738281 199.816406 80.363281 199.972656 C 79.984375 200.128906 79.59375 200.207031 79.183594 200.207031 C 78.777344 200.207031 78.382812 200.128906 78.007812 199.972656 C 77.628906 199.816406 77.296875 199.597656 77.007812 199.308594 C 76.71875 199.019531 76.496094 198.6875 76.339844 198.3125 C 76.1875 197.9375 76.109375 197.542969 76.109375 197.136719 Z M 76.109375 177.714844 " fill-opacity="1" fill-rule="nonzero"/><path fill="#233cb5" d="M 93.671875 175.121094 C 93.667969 174.710938 93.742188 174.320312 93.898438 173.941406 C 94.054688 173.5625 94.277344 173.230469 94.566406 172.941406 C 94.855469 172.652344 95.1875 172.433594 95.566406 172.277344 C 95.945312 172.121094 96.339844 172.046875 96.75 172.050781 L 106.464844 172.050781 C 110.023438 172.050781 112.78125 173.046875 114.617188 174.882812 C 115.433594 175.742188 116.046875 176.722656 116.464844 177.832031 C 116.882812 178.9375 117.066406 180.082031 117.015625 181.265625 L 117.015625 181.34375 C 117.070312 182.257812 116.976562 183.15625 116.738281 184.039062 C 116.5 184.925781 116.128906 185.75 115.625 186.515625 C 115.121094 187.28125 114.511719 187.945312 113.792969 188.515625 C 113.070312 189.082031 112.28125 189.523438 111.417969 189.839844 L 115.699219 195.023438 C 116.332031 195.679688 116.667969 196.464844 116.699219 197.375 C 116.695312 197.757812 116.621094 198.125 116.46875 198.472656 C 116.320312 198.824219 116.105469 199.132812 115.832031 199.398438 C 115.558594 199.664062 115.242188 199.867188 114.886719 200.007812 C 114.53125 200.148438 114.164062 200.214844 113.78125 200.207031 C 113.171875 200.207031 112.601562 200.066406 112.0625 199.785156 C 111.527344 199.5 111.085938 199.109375 110.742188 198.613281 L 104.738281 191.035156 L 99.820312 191.035156 L 99.820312 197.136719 C 99.820312 197.542969 99.742188 197.9375 99.585938 198.3125 C 99.429688 198.6875 99.207031 199.019531 98.921875 199.308594 C 98.632812 199.597656 98.300781 199.816406 97.921875 199.972656 C 97.542969 200.128906 97.152344 200.207031 96.742188 200.207031 C 96.335938 200.207031 95.945312 200.128906 95.566406 199.972656 C 95.1875 199.816406 94.855469 199.597656 94.566406 199.308594 C 94.277344 199.019531 94.058594 198.6875 93.902344 198.3125 C 93.746094 197.9375 93.667969 197.542969 93.667969 197.136719 Z M 106.0625 185.609375 C 109.058594 185.609375 110.777344 184.015625 110.777344 181.660156 L 110.777344 181.582031 C 110.777344 178.949219 108.941406 177.59375 105.941406 177.59375 L 99.828125 177.59375 L 99.828125 185.613281 Z M 106.0625 185.609375 " fill-opacity="1" fill-rule="nonzero"/><path fill="#233cb5" d="M 119.464844 196.019531 L 129.21875 174.042969 C 129.355469 173.683594 129.546875 173.347656 129.789062 173.046875 C 130.03125 172.742188 130.3125 172.480469 130.632812 172.265625 C 130.953125 172.046875 131.300781 171.882812 131.671875 171.769531 C 132.046875 171.660156 132.425781 171.605469 132.816406 171.609375 L 133.175781 171.609375 C 133.558594 171.605469 133.9375 171.660156 134.308594 171.773438 C 134.675781 171.882812 135.019531 172.046875 135.339844 172.265625 C 135.65625 172.484375 135.933594 172.746094 136.171875 173.046875 C 136.410156 173.351562 136.597656 173.683594 136.730469 174.042969 L 146.484375 196.019531 C 146.683594 196.40625 146.789062 196.820312 146.804688 197.253906 C 146.808594 197.644531 146.738281 198.019531 146.59375 198.382812 C 146.449219 198.742188 146.238281 199.0625 145.964844 199.339844 C 145.691406 199.617188 145.371094 199.832031 145.011719 199.980469 C 144.652344 200.132812 144.277344 200.207031 143.886719 200.207031 C 143.558594 200.207031 143.242188 200.15625 142.929688 200.054688 C 142.621094 199.957031 142.332031 199.8125 142.066406 199.621094 C 141.804688 199.433594 141.574219 199.207031 141.378906 198.945312 C 141.183594 198.683594 141.035156 198.398438 140.929688 198.09375 L 139.050781 193.707031 L 126.742188 193.707031 L 124.777344 198.292969 C 124.550781 198.875 124.175781 199.339844 123.65625 199.691406 C 123.136719 200.039062 122.566406 200.210938 121.941406 200.207031 C 121.558594 200.207031 121.195312 200.136719 120.84375 199.988281 C 120.492188 199.84375 120.183594 199.636719 119.917969 199.367188 C 119.648438 199.09375 119.445312 198.785156 119.304688 198.433594 C 119.164062 198.082031 119.097656 197.714844 119.101562 197.335938 C 119.128906 196.871094 119.246094 196.433594 119.460938 196.019531 M 136.769531 188.285156 L 132.894531 179.074219 L 129.015625 188.289062 Z M 136.769531 188.285156 " fill-opacity="1" fill-rule="nonzero"/><path fill="#233cb5" d="M 149.652344 174.960938 C 149.652344 174.554688 149.726562 174.160156 149.882812 173.78125 C 150.035156 173.40625 150.257812 173.070312 150.546875 172.78125 C 150.835938 172.496094 151.171875 172.273438 151.550781 172.117188 C 151.929688 171.960938 152.320312 171.886719 152.730469 171.890625 L 153.371094 171.890625 C 154.023438 171.898438 154.632812 172.058594 155.199219 172.378906 C 155.765625 172.699219 156.222656 173.132812 156.566406 173.683594 L 168.4375 189.238281 L 168.4375 174.839844 C 168.4375 174.441406 168.515625 174.054688 168.671875 173.679688 C 168.824219 173.308594 169.042969 172.984375 169.328125 172.699219 C 169.613281 172.414062 169.941406 172.195312 170.3125 172.042969 C 170.6875 171.886719 171.074219 171.808594 171.476562 171.808594 C 171.878906 171.808594 172.265625 171.886719 172.640625 172.042969 C 173.011719 172.195312 173.339844 172.414062 173.625 172.699219 C 173.910156 172.984375 174.128906 173.308594 174.285156 173.679688 C 174.4375 174.054688 174.515625 174.441406 174.515625 174.839844 L 174.515625 197.054688 C 174.519531 197.464844 174.441406 197.855469 174.285156 198.234375 C 174.132812 198.613281 173.910156 198.945312 173.621094 199.234375 C 173.332031 199.523438 172.996094 199.746094 172.617188 199.898438 C 172.238281 200.054688 171.84375 200.128906 171.4375 200.125 L 171.234375 200.125 C 170.585938 200.117188 169.976562 199.957031 169.40625 199.636719 C 168.839844 199.320312 168.382812 198.882812 168.039062 198.332031 L 155.726562 182.21875 L 155.726562 197.175781 C 155.734375 197.582031 155.664062 197.972656 155.511719 198.351562 C 155.363281 198.730469 155.144531 199.066406 154.859375 199.355469 C 154.570312 199.648438 154.242188 199.871094 153.863281 200.027344 C 153.488281 200.1875 153.097656 200.265625 152.6875 200.265625 C 152.28125 200.265625 151.890625 200.1875 151.511719 200.027344 C 151.136719 199.871094 150.804688 199.648438 150.519531 199.355469 C 150.234375 199.066406 150.015625 198.730469 149.867188 198.351562 C 149.714844 197.972656 149.644531 197.582031 149.652344 197.175781 Z M 149.652344 174.960938 " fill-opacity="1" fill-rule="nonzero"/><path fill="#233cb5" d="M 179.542969 197.015625 C 179.175781 196.742188 178.890625 196.40625 178.6875 196 C 178.484375 195.59375 178.382812 195.160156 178.386719 194.707031 C 178.382812 194.328125 178.457031 193.964844 178.601562 193.613281 C 178.75 193.261719 178.957031 192.957031 179.230469 192.6875 C 179.5 192.421875 179.8125 192.21875 180.164062 192.078125 C 180.515625 191.9375 180.882812 191.871094 181.261719 191.875 C 181.910156 191.871094 182.496094 192.054688 183.023438 192.433594 C 184.042969 193.234375 185.167969 193.847656 186.390625 194.28125 C 187.617188 194.710938 188.878906 194.933594 190.175781 194.945312 C 192.695312 194.945312 194.214844 193.949219 194.214844 192.3125 L 194.214844 192.234375 C 194.214844 190.679688 193.253906 189.882812 188.578125 188.683594 C 182.941406 187.25 179.304688 185.695312 179.304688 180.148438 L 179.304688 180.070312 C 179.304688 175.007812 183.382812 171.65625 189.097656 171.65625 C 192.300781 171.605469 195.257812 172.429688 197.972656 174.128906 C 198.238281 174.289062 198.46875 174.492188 198.667969 174.730469 C 198.867188 174.96875 199.023438 175.234375 199.136719 175.523438 C 199.25 175.8125 199.3125 176.113281 199.328125 176.421875 C 199.339844 176.734375 199.304688 177.039062 199.21875 177.335938 C 199.132812 177.636719 199 177.914062 198.824219 178.167969 C 198.644531 178.425781 198.433594 178.644531 198.183594 178.832031 C 197.933594 179.015625 197.660156 179.15625 197.363281 179.253906 C 197.066406 179.351562 196.761719 179.398438 196.453125 179.394531 C 195.890625 179.394531 195.371094 179.25 194.894531 178.957031 C 193.109375 177.792969 191.148438 177.167969 189.019531 177.082031 C 186.660156 177.082031 185.421875 178.15625 185.421875 179.515625 L 185.421875 179.59375 C 185.421875 181.425781 186.621094 182.027344 191.457031 183.261719 C 197.132812 184.738281 200.332031 186.773438 200.332031 191.636719 L 200.332031 191.71875 C 200.332031 197.257812 196.09375 200.375 190.058594 200.375 C 188.175781 200.378906 186.335938 200.09375 184.539062 199.523438 C 182.746094 198.949219 181.078125 198.121094 179.546875 197.027344 " fill-opacity="1" fill-rule="nonzero"/><path fill="#233cb5" d="M 202.679688 186.089844 L 202.679688 186.011719 C 202.671875 185.050781 202.761719 184.101562 202.945312 183.160156 C 203.128906 182.21875 203.402344 181.304688 203.769531 180.421875 C 204.136719 179.535156 204.589844 178.695312 205.125 177.898438 C 205.660156 177.101562 206.269531 176.371094 206.957031 175.695312 C 207.640625 175.023438 208.382812 174.425781 209.1875 173.898438 C 209.992188 173.375 210.839844 172.9375 211.734375 172.582031 C 212.625 172.226562 213.546875 171.964844 214.492188 171.796875 C 215.4375 171.625 216.390625 171.550781 217.347656 171.570312 C 219.046875 171.488281 220.714844 171.679688 222.347656 172.144531 C 223.984375 172.609375 225.503906 173.320312 226.902344 174.285156 C 227.300781 174.570312 227.613281 174.933594 227.839844 175.367188 C 228.0625 175.804688 228.175781 176.265625 228.179688 176.757812 C 228.179688 177.160156 228.105469 177.546875 227.949219 177.917969 C 227.796875 178.289062 227.578125 178.617188 227.292969 178.898438 C 227.007812 179.183594 226.679688 179.402344 226.304688 179.558594 C 225.933594 179.710938 225.546875 179.789062 225.144531 179.789062 C 224.441406 179.792969 223.816406 179.582031 223.265625 179.148438 C 222.382812 178.496094 221.417969 178.007812 220.367188 177.679688 C 219.320312 177.351562 218.246094 177.203125 217.148438 177.234375 C 212.671875 177.234375 209.117188 181.183594 209.117188 185.929688 L 209.117188 186.011719 C 209.117188 191.113281 212.632812 194.863281 217.589844 194.863281 C 219.703125 194.925781 221.632812 194.367188 223.382812 193.1875 L 223.382812 189.199219 L 219.222656 189.199219 C 218.871094 189.203125 218.527344 189.140625 218.203125 189.007812 C 217.875 188.878906 217.585938 188.6875 217.332031 188.441406 C 217.082031 188.195312 216.886719 187.90625 216.75 187.582031 C 216.613281 187.257812 216.542969 186.917969 216.542969 186.566406 C 216.542969 186.214844 216.609375 185.871094 216.746094 185.542969 C 216.882812 185.21875 217.078125 184.929688 217.328125 184.675781 C 217.578125 184.425781 217.867188 184.234375 218.195312 184.097656 C 218.523438 183.960938 218.867188 183.894531 219.222656 183.894531 L 226.257812 183.894531 C 226.667969 183.890625 227.058594 183.964844 227.4375 184.121094 C 227.816406 184.277344 228.152344 184.496094 228.441406 184.785156 C 228.730469 185.074219 228.953125 185.410156 229.105469 185.785156 C 229.261719 186.164062 229.339844 186.558594 229.335938 186.964844 L 229.335938 193.746094 C 229.359375 194.140625 229.328125 194.53125 229.242188 194.914062 C 229.15625 195.300781 229.015625 195.667969 228.828125 196.011719 C 228.636719 196.359375 228.398438 196.671875 228.117188 196.949219 C 227.839844 197.230469 227.523438 197.464844 227.175781 197.652344 C 224.175781 199.511719 220.914062 200.441406 217.382812 200.445312 C 208.671875 200.445312 202.675781 194.34375 202.675781 186.089844 " fill-opacity="1" fill-rule="nonzero"/><path fill="#233cb5" d="M 234.121094 175.121094 C 234.117188 174.710938 234.191406 174.320312 234.347656 173.941406 C 234.503906 173.5625 234.722656 173.230469 235.011719 172.941406 C 235.304688 172.652344 235.636719 172.433594 236.015625 172.277344 C 236.394531 172.121094 236.789062 172.046875 237.195312 172.050781 L 246.914062 172.050781 C 250.472656 172.050781 253.230469 173.046875 255.066406 174.882812 C 255.882812 175.742188 256.496094 176.722656 256.914062 177.832031 C 257.328125 178.9375 257.511719 180.082031 257.464844 181.265625 L 257.464844 181.34375 C 257.519531 182.257812 257.425781 183.15625 257.1875 184.039062 C 256.949219 184.925781 256.578125 185.75 256.074219 186.515625 C 255.570312 187.28125 254.960938 187.945312 254.238281 188.515625 C 253.519531 189.082031 252.730469 189.523438 251.867188 189.839844 L 256.148438 195.023438 C 256.78125 195.679688 257.113281 196.464844 257.148438 197.375 C 257.144531 197.757812 257.066406 198.125 256.917969 198.472656 C 256.765625 198.824219 256.554688 199.132812 256.28125 199.398438 C 256.007812 199.664062 255.691406 199.867188 255.335938 200.007812 C 254.980469 200.148438 254.613281 200.214844 254.230469 200.207031 C 253.621094 200.207031 253.050781 200.066406 252.511719 199.785156 C 251.976562 199.503906 251.535156 199.109375 251.191406 198.613281 L 245.195312 191.03125 L 240.28125 191.03125 L 240.28125 197.136719 C 240.28125 197.542969 240.203125 197.933594 240.046875 198.3125 C 239.890625 198.6875 239.667969 199.019531 239.378906 199.308594 C 239.089844 199.59375 238.757812 199.816406 238.378906 199.972656 C 238.003906 200.128906 237.609375 200.207031 237.203125 200.207031 C 236.792969 200.207031 236.402344 200.128906 236.023438 199.972656 C 235.648438 199.816406 235.3125 199.59375 235.027344 199.308594 C 234.738281 199.019531 234.515625 198.6875 234.359375 198.3125 C 234.203125 197.933594 234.125 197.542969 234.125 197.136719 Z M 246.511719 185.609375 C 249.507812 185.609375 251.226562 184.015625 251.226562 181.660156 L 251.226562 181.582031 C 251.226562 178.949219 249.390625 177.59375 246.390625 177.59375 L 240.273438 177.59375 L 240.273438 185.613281 Z M 246.511719 185.609375 " fill-opacity="1" fill-rule="nonzero"/><path fill="#233cb5" d="M 260.167969 186.089844 L 260.167969 186.011719 C 260.167969 185.042969 260.261719 184.085938 260.453125 183.136719 C 260.648438 182.191406 260.929688 181.273438 261.308594 180.382812 C 261.6875 179.492188 262.148438 178.648438 262.695312 177.847656 C 263.242188 177.050781 263.863281 176.316406 264.558594 175.640625 C 265.253906 174.96875 266.007812 174.371094 266.824219 173.847656 C 267.640625 173.328125 268.5 172.890625 269.402344 172.542969 C 270.304688 172.191406 271.234375 171.9375 272.191406 171.773438 C 273.144531 171.609375 274.105469 171.542969 275.074219 171.570312 C 283.707031 171.570312 289.90625 177.992188 289.90625 185.929688 L 289.90625 186.011719 C 289.90625 186.976562 289.808594 187.933594 289.617188 188.882812 C 289.425781 189.828125 289.140625 190.746094 288.761719 191.636719 C 288.386719 192.527344 287.921875 193.371094 287.375 194.171875 C 286.828125 194.96875 286.207031 195.703125 285.511719 196.375 C 284.816406 197.050781 284.0625 197.648438 283.246094 198.167969 C 282.429688 198.691406 281.570312 199.128906 280.667969 199.476562 C 279.765625 199.828125 278.835938 200.082031 277.878906 200.246094 C 276.925781 200.410156 275.964844 200.476562 274.996094 200.445312 C 266.363281 200.445312 260.167969 194.027344 260.167969 186.089844 M 283.46875 186.089844 L 283.46875 186.011719 C 283.488281 185.441406 283.453125 184.878906 283.359375 184.316406 C 283.261719 183.757812 283.113281 183.210938 282.910156 182.679688 C 282.707031 182.152344 282.453125 181.644531 282.144531 181.167969 C 281.839844 180.6875 281.488281 180.242188 281.09375 179.832031 C 280.699219 179.425781 280.265625 179.058594 279.796875 178.734375 C 279.328125 178.414062 278.832031 178.140625 278.308594 177.917969 C 277.785156 177.695312 277.246094 177.527344 276.6875 177.410156 C 276.128906 177.296875 275.566406 177.238281 274.996094 177.238281 C 274.429688 177.234375 273.871094 177.289062 273.316406 177.402344 C 272.761719 177.511719 272.222656 177.675781 271.703125 177.898438 C 271.183594 178.117188 270.691406 178.386719 270.222656 178.707031 C 269.757812 179.023438 269.328125 179.386719 268.9375 179.792969 C 268.542969 180.199219 268.195312 180.640625 267.894531 181.117188 C 267.589844 181.59375 267.339844 182.097656 267.140625 182.625 C 266.9375 183.152344 266.792969 183.695312 266.703125 184.25 C 266.613281 184.808594 266.578125 185.367188 266.601562 185.929688 L 266.601562 186.011719 C 266.582031 186.582031 266.621094 187.144531 266.714844 187.703125 C 266.808594 188.265625 266.957031 188.8125 267.160156 189.339844 C 267.367188 189.871094 267.621094 190.375 267.925781 190.855469 C 268.230469 191.335938 268.582031 191.78125 268.976562 192.1875 C 269.371094 192.597656 269.804688 192.964844 270.273438 193.285156 C 270.742188 193.609375 271.238281 193.882812 271.761719 194.105469 C 272.285156 194.328125 272.828125 194.496094 273.386719 194.609375 C 273.941406 194.726562 274.507812 194.78125 275.074219 194.785156 C 275.640625 194.785156 276.199219 194.730469 276.753906 194.621094 C 277.308594 194.511719 277.847656 194.34375 278.367188 194.125 C 278.886719 193.90625 279.382812 193.636719 279.847656 193.316406 C 280.3125 192.996094 280.742188 192.632812 281.136719 192.226562 C 281.527344 191.820312 281.875 191.378906 282.175781 190.902344 C 282.480469 190.425781 282.730469 189.925781 282.933594 189.398438 C 283.132812 188.871094 283.277344 188.328125 283.367188 187.769531 C 283.460938 187.214844 283.492188 186.65625 283.46875 186.089844 " fill-opacity="1" fill-rule="nonzero"/><path fill="#233cb5" d="M 292.46875 186.089844 L 292.46875 186.011719 C 292.464844 185.042969 292.5625 184.085938 292.753906 183.136719 C 292.945312 182.191406 293.230469 181.273438 293.609375 180.382812 C 293.984375 179.492188 294.449219 178.648438 294.996094 177.847656 C 295.542969 177.050781 296.164062 176.316406 296.859375 175.640625 C 297.554688 174.96875 298.308594 174.371094 299.125 173.847656 C 299.941406 173.328125 300.800781 172.890625 301.703125 172.542969 C 302.605469 172.191406 303.535156 171.9375 304.492188 171.773438 C 305.445312 171.609375 306.40625 171.542969 307.375 171.570312 C 316.007812 171.570312 322.203125 177.992188 322.203125 185.929688 L 322.203125 186.011719 C 322.207031 186.976562 322.109375 187.933594 321.917969 188.882812 C 321.726562 189.828125 321.441406 190.746094 321.0625 191.636719 C 320.683594 192.527344 320.222656 193.371094 319.675781 194.171875 C 319.128906 194.96875 318.507812 195.703125 317.8125 196.375 C 317.117188 197.050781 316.363281 197.648438 315.546875 198.167969 C 314.730469 198.691406 313.871094 199.128906 312.96875 199.476562 C 312.066406 199.828125 311.136719 200.082031 310.179688 200.246094 C 309.226562 200.410156 308.265625 200.476562 307.296875 200.445312 C 298.660156 200.445312 292.46875 194.027344 292.46875 186.089844 M 315.769531 186.089844 L 315.769531 186.011719 C 315.789062 185.441406 315.75 184.878906 315.65625 184.316406 C 315.5625 183.757812 315.414062 183.210938 315.210938 182.679688 C 315.007812 182.152344 314.75 181.644531 314.445312 181.167969 C 314.140625 180.6875 313.789062 180.242188 313.394531 179.832031 C 313 179.425781 312.566406 179.058594 312.097656 178.734375 C 311.628906 178.414062 311.132812 178.140625 310.609375 177.917969 C 310.085938 177.695312 309.542969 177.527344 308.988281 177.410156 C 308.429688 177.296875 307.867188 177.238281 307.296875 177.238281 C 306.730469 177.234375 306.171875 177.289062 305.617188 177.402344 C 305.0625 177.511719 304.527344 177.675781 304.003906 177.894531 C 303.484375 178.117188 302.992188 178.386719 302.527344 178.703125 C 302.058594 179.023438 301.628906 179.386719 301.238281 179.792969 C 300.847656 180.199219 300.5 180.640625 300.195312 181.117188 C 299.894531 181.589844 299.640625 182.09375 299.441406 182.621094 C 299.242188 183.148438 299.09375 183.6875 299.003906 184.246094 C 298.914062 184.800781 298.878906 185.363281 298.902344 185.925781 L 298.902344 186.007812 C 298.882812 186.574219 298.921875 187.136719 299.015625 187.699219 C 299.109375 188.257812 299.257812 188.804688 299.460938 189.335938 C 299.664062 189.867188 299.921875 190.371094 300.226562 190.851562 C 300.53125 191.328125 300.882812 191.773438 301.277344 192.183594 C 301.671875 192.59375 302.105469 192.957031 302.574219 193.28125 C 303.042969 193.601562 303.539062 193.875 304.0625 194.097656 C 304.585938 194.320312 305.128906 194.492188 305.683594 194.605469 C 306.242188 194.71875 306.804688 194.777344 307.375 194.777344 C 307.941406 194.78125 308.5 194.726562 309.054688 194.617188 C 309.609375 194.503906 310.148438 194.339844 310.667969 194.121094 C 311.1875 193.898438 311.683594 193.628906 312.148438 193.3125 C 312.613281 192.992188 313.042969 192.628906 313.433594 192.222656 C 313.828125 191.816406 314.175781 191.375 314.476562 190.898438 C 314.78125 190.421875 315.03125 189.917969 315.230469 189.390625 C 315.433594 188.863281 315.578125 188.324219 315.667969 187.765625 C 315.757812 187.207031 315.792969 186.648438 315.769531 186.085938 " fill-opacity="1" fill-rule="nonzero"/><path fill="#233cb5" d="M 326.324219 174.960938 C 326.320312 174.554688 326.394531 174.160156 326.550781 173.785156 C 326.707031 173.40625 326.925781 173.074219 327.21875 172.785156 C 327.507812 172.496094 327.839844 172.273438 328.21875 172.117188 C 328.597656 171.964844 328.992188 171.886719 329.398438 171.890625 L 330.078125 171.890625 C 330.65625 171.882812 331.195312 172.019531 331.695312 172.304688 C 332.199219 172.59375 332.59375 172.984375 332.878906 173.488281 L 340.3125 185.570312 L 347.785156 173.453125 C 348.0625 172.953125 348.445312 172.5625 348.945312 172.285156 C 349.441406 172.003906 349.972656 171.875 350.542969 171.898438 L 351.222656 171.898438 C 351.632812 171.894531 352.027344 171.96875 352.40625 172.125 C 352.78125 172.277344 353.117188 172.5 353.40625 172.789062 C 353.695312 173.078125 353.917969 173.410156 354.074219 173.789062 C 354.226562 174.167969 354.304688 174.558594 354.300781 174.96875 L 354.300781 197.140625 C 354.300781 197.546875 354.222656 197.933594 354.066406 198.308594 C 353.914062 198.683594 353.691406 199.011719 353.40625 199.296875 C 353.117188 199.585938 352.789062 199.804688 352.414062 199.960938 C 352.039062 200.113281 351.648438 200.191406 351.242188 200.191406 C 350.839844 200.191406 350.449219 200.113281 350.074219 199.960938 C 349.699219 199.804688 349.367188 199.585938 349.082031 199.296875 C 348.792969 199.011719 348.574219 198.683594 348.417969 198.308594 C 348.261719 197.933594 348.1875 197.546875 348.1875 197.140625 L 348.1875 183.21875 L 342.789062 191.511719 C 342.542969 191.988281 342.191406 192.367188 341.730469 192.648438 C 341.269531 192.929688 340.769531 193.066406 340.234375 193.066406 C 339.695312 193.066406 339.195312 192.929688 338.734375 192.648438 C 338.273438 192.367188 337.921875 191.988281 337.675781 191.511719 L 332.351562 183.335938 L 332.351562 197.214844 C 332.351562 197.617188 332.273438 198 332.117188 198.367188 C 331.964844 198.738281 331.742188 199.0625 331.457031 199.34375 C 331.171875 199.625 330.84375 199.839844 330.472656 199.988281 C 330.101562 200.136719 329.714844 200.210938 329.316406 200.207031 C 328.917969 200.210938 328.53125 200.136719 328.164062 199.988281 C 327.792969 199.835938 327.46875 199.621094 327.1875 199.339844 C 326.90625 199.058594 326.6875 198.734375 326.539062 198.367188 C 326.386719 197.996094 326.3125 197.613281 326.316406 197.214844 Z M 326.324219 174.960938 " fill-opacity="1" fill-rule="nonzero"/><g clip-path="url(#f2a095b77b)"><path fill="#233cb5" d="M 129.257812 206.414062 C 129.261719 206.292969 129.304688 206.1875 129.394531 206.101562 C 129.480469 206.011719 129.585938 205.96875 129.707031 205.964844 L 133.660156 205.964844 C 136.328125 205.964844 138.171875 207.332031 138.171875 209.664062 L 138.171875 209.699219 C 138.171875 212.238281 135.972656 213.554688 133.4375 213.554688 L 130.164062 213.554688 L 130.164062 217.6875 C 130.164062 217.8125 130.121094 217.917969 130.035156 218.003906 C 129.945312 218.09375 129.839844 218.136719 129.714844 218.136719 C 129.589844 218.136719 129.484375 218.09375 129.394531 218.003906 C 129.308594 217.917969 129.261719 217.8125 129.261719 217.6875 Z M 133.488281 212.726562 C 135.738281 212.726562 137.265625 211.550781 137.265625 209.753906 L 137.265625 209.71875 C 137.265625 207.796875 135.773438 206.796875 133.589844 206.796875 L 130.160156 206.796875 L 130.160156 212.726562 Z M 133.488281 212.726562 " fill-opacity="1" fill-rule="nonzero"/></g><g clip-path="url(#ffa948cf28)"><path fill="#233cb5" d="M 143.613281 218.277344 C 143.316406 218.269531 143.023438 218.238281 142.738281 218.175781 C 142.449219 218.113281 142.167969 218.023438 141.898438 217.902344 C 141.628906 217.785156 141.375 217.640625 141.132812 217.46875 C 140.890625 217.300781 140.671875 217.109375 140.46875 216.894531 C 140.265625 216.679688 140.085938 216.445312 139.933594 216.195312 C 139.777344 215.945312 139.648438 215.679688 139.546875 215.40625 C 139.445312 215.128906 139.371094 214.84375 139.328125 214.554688 C 139.28125 214.261719 139.265625 213.96875 139.28125 213.675781 L 139.28125 213.640625 C 139.265625 213.351562 139.277344 213.0625 139.316406 212.777344 C 139.355469 212.488281 139.425781 212.210938 139.523438 211.9375 C 139.617188 211.664062 139.742188 211.402344 139.890625 211.152344 C 140.039062 210.90625 140.210938 210.671875 140.40625 210.460938 C 140.601562 210.246094 140.816406 210.050781 141.050781 209.878906 C 141.285156 209.710938 141.535156 209.5625 141.796875 209.441406 C 142.058594 209.320312 142.332031 209.222656 142.617188 209.15625 C 142.898438 209.089844 143.183594 209.050781 143.472656 209.039062 C 145.953125 209.039062 147.527344 211.082031 147.527344 213.605469 C 147.519531 213.714844 147.476562 213.804688 147.398438 213.882812 C 147.316406 213.957031 147.222656 214 147.113281 214.003906 L 140.183594 214.003906 C 140.183594 214.460938 140.273438 214.902344 140.453125 215.328125 C 140.628906 215.75 140.878906 216.125 141.203125 216.449219 C 141.527344 216.773438 141.902344 217.027344 142.328125 217.203125 C 142.75 217.382812 143.191406 217.472656 143.652344 217.476562 C 144.78125 217.484375 145.734375 217.082031 146.511719 216.265625 C 146.585938 216.1875 146.679688 216.148438 146.789062 216.152344 C 146.902344 216.148438 146.996094 216.1875 147.078125 216.265625 C 147.160156 216.34375 147.203125 216.4375 147.203125 216.550781 C 147.199219 216.667969 147.152344 216.765625 147.066406 216.84375 C 146.621094 217.320312 146.101562 217.6875 145.496094 217.9375 C 144.894531 218.1875 144.269531 218.300781 143.617188 218.28125 M 146.613281 213.25 C 146.5 211.46875 145.472656 209.824219 143.445312 209.824219 C 143.003906 209.847656 142.585938 209.953125 142.1875 210.136719 C 141.789062 210.320312 141.4375 210.570312 141.132812 210.890625 C 140.832031 211.207031 140.597656 211.570312 140.433594 211.980469 C 140.269531 212.386719 140.1875 212.808594 140.1875 213.25 Z M 146.613281 213.25 " fill-opacity="1" fill-rule="nonzero"/></g><g clip-path="url(#f93f96a058)"><path fill="#233cb5" d="M 149.699219 215.804688 L 149.699219 210.03125 L 148.746094 210.03125 C 148.636719 210.027344 148.542969 209.988281 148.46875 209.910156 C 148.390625 209.832031 148.351562 209.742188 148.347656 209.632812 C 148.351562 209.527344 148.394531 209.4375 148.46875 209.363281 C 148.546875 209.292969 148.636719 209.253906 148.746094 209.253906 L 149.699219 209.253906 L 149.699219 206.800781 C 149.691406 206.683594 149.730469 206.582031 149.8125 206.496094 C 149.894531 206.410156 149.996094 206.367188 150.113281 206.367188 C 150.234375 206.367188 150.335938 206.410156 150.421875 206.492188 C 150.507812 206.578125 150.546875 206.679688 150.546875 206.800781 L 150.546875 209.253906 L 153.324219 209.253906 C 153.429688 209.257812 153.523438 209.300781 153.601562 209.375 C 153.675781 209.453125 153.71875 209.546875 153.722656 209.652344 C 153.714844 209.757812 153.675781 209.847656 153.597656 209.921875 C 153.523438 209.996094 153.429688 210.03125 153.324219 210.03125 L 150.546875 210.03125 L 150.546875 215.722656 C 150.519531 215.960938 150.546875 216.195312 150.625 216.421875 C 150.707031 216.648438 150.835938 216.84375 151.007812 217.011719 C 151.179688 217.179688 151.382812 217.300781 151.613281 217.375 C 151.839844 217.449219 152.074219 217.46875 152.316406 217.433594 C 152.65625 217.421875 152.992188 217.363281 153.320312 217.257812 C 153.421875 217.265625 153.511719 217.300781 153.585938 217.375 C 153.65625 217.449219 153.695312 217.535156 153.699219 217.640625 C 153.699219 217.828125 153.605469 217.949219 153.421875 218.003906 C 153.019531 218.152344 152.605469 218.226562 152.175781 218.226562 C 151.84375 218.261719 151.519531 218.222656 151.203125 218.109375 C 150.886719 218 150.609375 217.828125 150.367188 217.59375 C 150.128906 217.359375 149.949219 217.085938 149.832031 216.773438 C 149.714844 216.460938 149.671875 216.136719 149.699219 215.804688 " fill-opacity="1" fill-rule="nonzero"/></g><g clip-path="url(#2d4de14aa9)"><path fill="#233cb5" d="M 159.976562 212.050781 L 159.976562 212.015625 C 159.964844 211.613281 159.992188 211.210938 160.0625 210.808594 C 160.128906 210.410156 160.238281 210.019531 160.386719 209.640625 C 160.53125 209.265625 160.714844 208.902344 160.933594 208.5625 C 161.152344 208.222656 161.40625 207.902344 161.6875 207.613281 C 161.96875 207.320312 162.277344 207.058594 162.613281 206.828125 C 162.949219 206.601562 163.300781 206.40625 163.675781 206.246094 C 164.050781 206.085938 164.4375 205.964844 164.835938 205.882812 C 165.230469 205.800781 165.632812 205.757812 166.042969 205.757812 C 166.867188 205.742188 167.664062 205.878906 168.433594 206.171875 C 169.203125 206.464844 169.890625 206.890625 170.492188 207.453125 C 170.601562 207.546875 170.660156 207.667969 170.667969 207.816406 C 170.660156 207.9375 170.613281 208.042969 170.523438 208.128906 C 170.433594 208.21875 170.328125 208.261719 170.203125 208.265625 C 170.085938 208.265625 169.980469 208.226562 169.894531 208.148438 C 169.378906 207.640625 168.789062 207.25 168.121094 206.976562 C 167.449219 206.703125 166.753906 206.570312 166.03125 206.574219 C 165.683594 206.582031 165.339844 206.621094 165 206.691406 C 164.660156 206.765625 164.328125 206.875 164.011719 207.011719 C 163.691406 207.152344 163.390625 207.324219 163.109375 207.523438 C 162.824219 207.722656 162.5625 207.949219 162.324219 208.203125 C 162.085938 208.453125 161.875 208.726562 161.691406 209.023438 C 161.507812 209.316406 161.355469 209.625 161.234375 209.953125 C 161.113281 210.277344 161.027344 210.613281 160.972656 210.953125 C 160.921875 211.296875 160.902344 211.640625 160.917969 211.988281 L 160.917969 212.023438 C 160.902344 212.371094 160.921875 212.71875 160.976562 213.0625 C 161.03125 213.40625 161.117188 213.742188 161.238281 214.066406 C 161.359375 214.394531 161.511719 214.703125 161.695312 215 C 161.882812 215.296875 162.09375 215.570312 162.332031 215.824219 C 162.570312 216.078125 162.832031 216.308594 163.117188 216.507812 C 163.402344 216.710938 163.703125 216.882812 164.023438 217.023438 C 164.339844 217.164062 164.671875 217.273438 165.011719 217.347656 C 165.351562 217.421875 165.699219 217.464844 166.046875 217.46875 C 166.792969 217.476562 167.511719 217.335938 168.199219 217.046875 C 168.886719 216.753906 169.484375 216.335938 169.996094 215.792969 C 170.082031 215.703125 170.1875 215.65625 170.308594 215.652344 C 170.425781 215.660156 170.527344 215.703125 170.609375 215.785156 C 170.695312 215.871094 170.738281 215.96875 170.742188 216.085938 C 170.742188 216.210938 170.695312 216.3125 170.605469 216.398438 C 170 217.015625 169.300781 217.484375 168.503906 217.8125 C 167.703125 218.140625 166.875 218.296875 166.011719 218.28125 C 165.605469 218.28125 165.207031 218.242188 164.808594 218.164062 C 164.414062 218.082031 164.027344 217.964844 163.65625 217.804688 C 163.28125 217.648438 162.929688 217.453125 162.597656 217.226562 C 162.261719 216.996094 161.953125 216.738281 161.671875 216.449219 C 161.390625 216.15625 161.140625 215.84375 160.925781 215.5 C 160.707031 215.160156 160.527344 214.800781 160.378906 214.425781 C 160.234375 214.046875 160.128906 213.660156 160.0625 213.261719 C 159.996094 212.863281 159.96875 212.460938 159.984375 212.058594 " fill-opacity="1" fill-rule="nonzero"/></g><g clip-path="url(#d6879363cd)"><path fill="#233cb5" d="M 172.121094 215.507812 L 172.121094 215.472656 C 172.121094 213.640625 173.695312 212.605469 175.984375 212.605469 C 176.976562 212.59375 177.953125 212.71875 178.914062 212.984375 L 178.914062 212.605469 C 178.925781 212.414062 178.917969 212.226562 178.890625 212.035156 C 178.863281 211.847656 178.8125 211.667969 178.742188 211.488281 C 178.671875 211.3125 178.585938 211.144531 178.476562 210.988281 C 178.371094 210.832031 178.246094 210.6875 178.105469 210.558594 C 177.96875 210.429688 177.816406 210.316406 177.648438 210.21875 C 177.484375 210.125 177.3125 210.050781 177.128906 209.992188 C 176.945312 209.9375 176.761719 209.902344 176.570312 209.886719 C 176.378906 209.871094 176.191406 209.878906 176.003906 209.90625 C 175.121094 209.910156 174.28125 210.105469 173.488281 210.492188 C 173.429688 210.523438 173.367188 210.542969 173.300781 210.546875 C 173.191406 210.542969 173.097656 210.5 173.023438 210.425781 C 172.945312 210.347656 172.90625 210.253906 172.902344 210.148438 C 172.902344 209.972656 172.984375 209.84375 173.144531 209.769531 C 174.066406 209.332031 175.035156 209.113281 176.054688 209.109375 C 177.117188 209.042969 178.050781 209.367188 178.84375 210.078125 C 179.5 210.78125 179.800781 211.609375 179.746094 212.570312 L 179.746094 217.703125 C 179.75 217.824219 179.714844 217.925781 179.628906 218.011719 C 179.546875 218.097656 179.449219 218.140625 179.328125 218.140625 C 179.210938 218.140625 179.109375 218.097656 179.027344 218.011719 C 178.945312 217.925781 178.90625 217.824219 178.914062 217.703125 L 178.914062 216.597656 C 178.523438 217.140625 178.03125 217.558594 177.433594 217.855469 C 176.835938 218.152344 176.203125 218.292969 175.535156 218.273438 C 173.886719 218.273438 172.121094 217.339844 172.121094 215.503906 M 178.929688 214.761719 L 178.929688 213.757812 C 177.949219 213.496094 176.949219 213.363281 175.933594 213.359375 C 174.0625 213.359375 173.019531 214.191406 173.019531 215.417969 L 173.019531 215.453125 C 173.019531 216.730469 174.234375 217.472656 175.585938 217.472656 C 177.386719 217.472656 178.929688 216.367188 178.929688 214.757812 " fill-opacity="1" fill-rule="nonzero"/></g><g clip-path="url(#fc9a4e5ac8)"><path fill="#233cb5" d="M 182.214844 209.613281 C 182.214844 209.496094 182.253906 209.398438 182.339844 209.316406 C 182.421875 209.230469 182.523438 209.191406 182.640625 209.191406 C 182.757812 209.191406 182.855469 209.230469 182.9375 209.316406 C 183.023438 209.398438 183.0625 209.496094 183.0625 209.613281 L 183.0625 211.757812 C 183.355469 211.015625 183.820312 210.40625 184.460938 209.929688 C 185.101562 209.453125 185.820312 209.179688 186.617188 209.113281 C 186.742188 209.113281 186.851562 209.15625 186.9375 209.25 C 187.027344 209.339844 187.070312 209.449219 187.066406 209.574219 C 187.066406 209.699219 187.023438 209.804688 186.933594 209.894531 C 186.847656 209.984375 186.742188 210.03125 186.617188 210.035156 C 184.746094 210.207031 183.0625 211.609375 183.0625 214.445312 L 183.0625 217.695312 C 183.070312 217.8125 183.03125 217.914062 182.949219 218 C 182.867188 218.085938 182.765625 218.128906 182.648438 218.125 C 182.527344 218.132812 182.421875 218.089844 182.335938 218.003906 C 182.25 217.917969 182.210938 217.816406 182.214844 217.695312 Z M 182.214844 209.613281 " fill-opacity="1" fill-rule="nonzero"/></g><g clip-path="url(#e698b95c1c)"><path fill="#233cb5" d="M 191.804688 218.277344 C 191.511719 218.269531 191.21875 218.238281 190.929688 218.175781 C 190.644531 218.113281 190.363281 218.023438 190.09375 217.902344 C 189.824219 217.785156 189.566406 217.640625 189.328125 217.46875 C 189.085938 217.300781 188.863281 217.109375 188.664062 216.894531 C 188.460938 216.679688 188.28125 216.445312 188.125 216.195312 C 187.972656 215.945312 187.84375 215.679688 187.742188 215.40625 C 187.640625 215.128906 187.566406 214.84375 187.519531 214.554688 C 187.476562 214.261719 187.460938 213.96875 187.476562 213.675781 L 187.476562 213.640625 C 187.457031 213.351562 187.46875 213.0625 187.511719 212.777344 C 187.550781 212.488281 187.621094 212.210938 187.714844 211.9375 C 187.8125 211.664062 187.9375 211.402344 188.085938 211.152344 C 188.234375 210.90625 188.40625 210.671875 188.601562 210.460938 C 188.796875 210.246094 189.011719 210.050781 189.246094 209.878906 C 189.480469 209.710938 189.726562 209.5625 189.992188 209.441406 C 190.253906 209.320312 190.527344 209.222656 190.808594 209.15625 C 191.09375 209.089844 191.378906 209.050781 191.667969 209.039062 C 194.148438 209.039062 195.722656 211.082031 195.722656 213.605469 C 195.714844 213.714844 195.671875 213.804688 195.59375 213.882812 C 195.511719 213.957031 195.417969 214 195.308594 214.003906 L 188.375 214.003906 C 188.378906 214.460938 188.46875 214.902344 188.644531 215.328125 C 188.824219 215.75 189.074219 216.125 189.398438 216.449219 C 189.722656 216.773438 190.097656 217.027344 190.519531 217.203125 C 190.945312 217.382812 191.386719 217.472656 191.847656 217.476562 C 192.976562 217.484375 193.925781 217.082031 194.707031 216.265625 C 194.78125 216.1875 194.875 216.148438 194.984375 216.152344 C 195.09375 216.148438 195.191406 216.1875 195.273438 216.265625 C 195.355469 216.34375 195.394531 216.4375 195.398438 216.550781 C 195.394531 216.667969 195.347656 216.765625 195.257812 216.84375 C 194.816406 217.320312 194.292969 217.6875 193.691406 217.9375 C 193.089844 218.1875 192.464844 218.300781 191.8125 218.28125 M 194.808594 213.25 C 194.695312 211.46875 193.667969 209.824219 191.640625 209.824219 C 191.199219 209.847656 190.78125 209.953125 190.378906 210.136719 C 189.980469 210.320312 189.628906 210.570312 189.328125 210.890625 C 189.023438 211.207031 188.792969 211.570312 188.628906 211.980469 C 188.464844 212.386719 188.382812 212.808594 188.382812 213.25 Z M 194.808594 213.25 " fill-opacity="1" fill-rule="nonzero"/></g><g clip-path="url(#9a6cf79995)"><path fill="#233cb5" d="M 202.554688 206.414062 C 202.554688 206.292969 202.601562 206.1875 202.6875 206.101562 C 202.777344 206.011719 202.882812 205.96875 203.003906 205.964844 L 206.953125 205.964844 C 209.625 205.964844 211.464844 207.332031 211.464844 209.664062 L 211.464844 209.699219 C 211.464844 212.238281 209.269531 213.554688 206.734375 213.554688 L 203.460938 213.554688 L 203.460938 217.6875 C 203.460938 217.8125 203.417969 217.917969 203.328125 218.003906 C 203.242188 218.09375 203.132812 218.136719 203.011719 218.136719 C 202.886719 218.136719 202.777344 218.09375 202.691406 218.003906 C 202.601562 217.917969 202.558594 217.8125 202.558594 217.6875 Z M 206.78125 212.726562 C 209.035156 212.726562 210.558594 211.550781 210.558594 209.753906 L 210.558594 209.71875 C 210.558594 207.796875 209.070312 206.796875 206.886719 206.796875 L 203.457031 206.796875 L 203.457031 212.726562 Z M 206.78125 212.726562 " fill-opacity="1" fill-rule="nonzero"/></g><g clip-path="url(#f698dcb3e5)"><path fill="#233cb5" d="M 213.253906 209.613281 C 213.253906 209.496094 213.296875 209.398438 213.378906 209.316406 C 213.460938 209.230469 213.5625 209.191406 213.679688 209.191406 C 213.796875 209.191406 213.894531 209.230469 213.980469 209.316406 C 214.0625 209.398438 214.105469 209.496094 214.105469 209.613281 L 214.105469 211.757812 C 214.394531 211.015625 214.863281 210.40625 215.503906 209.929688 C 216.140625 209.453125 216.859375 209.179688 217.65625 209.113281 C 217.78125 209.113281 217.890625 209.15625 217.976562 209.25 C 218.066406 209.339844 218.109375 209.449219 218.105469 209.574219 C 218.105469 209.699219 218.0625 209.804688 217.976562 209.894531 C 217.886719 209.984375 217.78125 210.03125 217.65625 210.035156 C 215.785156 210.207031 214.105469 211.609375 214.105469 214.445312 L 214.105469 217.695312 C 214.109375 217.8125 214.070312 217.914062 213.988281 218 C 213.90625 218.085938 213.804688 218.128906 213.6875 218.125 C 213.566406 218.132812 213.464844 218.089844 213.378906 218.003906 C 213.292969 217.917969 213.25 217.816406 213.253906 217.695312 Z M 213.253906 209.613281 " fill-opacity="1" fill-rule="nonzero"/></g><g clip-path="url(#d6464f0afe)"><path fill="#233cb5" d="M 218.453125 213.695312 L 218.453125 213.660156 C 218.449219 213.359375 218.476562 213.058594 218.53125 212.761719 C 218.585938 212.46875 218.671875 212.179688 218.785156 211.898438 C 218.894531 211.621094 219.035156 211.355469 219.199219 211.101562 C 219.367188 210.851562 219.554688 210.617188 219.765625 210.402344 C 219.976562 210.1875 220.210938 209.996094 220.460938 209.828125 C 220.710938 209.65625 220.972656 209.515625 221.253906 209.398438 C 221.53125 209.28125 221.816406 209.191406 222.113281 209.132812 C 222.410156 209.074219 222.707031 209.042969 223.011719 209.042969 C 223.3125 209.042969 223.609375 209.070312 223.902344 209.128906 C 224.195312 209.1875 224.480469 209.277344 224.757812 209.390625 C 225.035156 209.507812 225.296875 209.648438 225.546875 209.816406 C 225.792969 209.984375 226.023438 210.175781 226.234375 210.386719 C 226.445312 210.601562 226.632812 210.832031 226.796875 211.082031 C 226.960938 211.335938 227.097656 211.597656 227.210938 211.875 C 227.320312 212.152344 227.40625 212.441406 227.457031 212.734375 C 227.511719 213.027344 227.539062 213.324219 227.53125 213.625 L 227.53125 213.660156 C 227.535156 213.960938 227.511719 214.261719 227.457031 214.554688 C 227.398438 214.851562 227.316406 215.140625 227.203125 215.421875 C 227.089844 215.699219 226.953125 215.964844 226.785156 216.21875 C 226.621094 216.46875 226.433594 216.703125 226.21875 216.917969 C 226.007812 217.132812 225.777344 217.324219 225.527344 217.492188 C 225.277344 217.664062 225.011719 217.804688 224.734375 217.921875 C 224.457031 218.039062 224.167969 218.125 223.871094 218.1875 C 223.574219 218.246094 223.277344 218.277344 222.976562 218.277344 C 222.675781 218.277344 222.378906 218.246094 222.082031 218.1875 C 221.789062 218.128906 221.503906 218.042969 221.226562 217.925781 C 220.949219 217.8125 220.6875 217.671875 220.441406 217.503906 C 220.191406 217.335938 219.960938 217.144531 219.75 216.929688 C 219.539062 216.71875 219.351562 216.484375 219.1875 216.234375 C 219.023438 215.984375 218.886719 215.722656 218.777344 215.441406 C 218.664062 215.164062 218.582031 214.878906 218.527344 214.585938 C 218.472656 214.289062 218.449219 213.992188 218.453125 213.695312 M 226.613281 213.695312 L 226.613281 213.660156 C 226.628906 213.164062 226.550781 212.683594 226.375 212.222656 C 226.199219 211.757812 225.9375 211.347656 225.597656 210.988281 C 225.253906 210.628906 224.855469 210.347656 224.402344 210.148438 C 223.945312 209.949219 223.472656 209.847656 222.976562 209.839844 C 222.730469 209.839844 222.488281 209.867188 222.25 209.917969 C 222.011719 209.96875 221.78125 210.042969 221.558594 210.140625 C 221.332031 210.238281 221.121094 210.355469 220.921875 210.496094 C 220.722656 210.636719 220.539062 210.792969 220.371094 210.972656 C 220.203125 211.148438 220.054688 211.339844 219.925781 211.546875 C 219.792969 211.753906 219.6875 211.96875 219.601562 212.195312 C 219.515625 212.425781 219.453125 212.660156 219.414062 212.898438 C 219.375 213.140625 219.363281 213.382812 219.371094 213.625 L 219.371094 213.660156 C 219.355469 214.15625 219.433594 214.632812 219.609375 215.097656 C 219.785156 215.5625 220.046875 215.972656 220.386719 216.332031 C 220.730469 216.691406 221.128906 216.972656 221.582031 217.171875 C 222.039062 217.371094 222.511719 217.472656 223.007812 217.480469 C 223.253906 217.480469 223.496094 217.453125 223.734375 217.402344 C 223.972656 217.351562 224.203125 217.277344 224.425781 217.179688 C 224.652344 217.082031 224.863281 216.964844 225.0625 216.824219 C 225.261719 216.683594 225.445312 216.527344 225.613281 216.347656 C 225.78125 216.171875 225.929688 215.980469 226.058594 215.773438 C 226.191406 215.570312 226.296875 215.351562 226.382812 215.125 C 226.46875 214.894531 226.53125 214.660156 226.570312 214.421875 C 226.609375 214.179688 226.625 213.9375 226.613281 213.695312 " fill-opacity="1" fill-rule="nonzero"/></g><g clip-path="url(#64e8826f4d)"><path fill="#233cb5" d="M 229.804688 210.027344 L 228.847656 210.027344 C 228.734375 210.03125 228.640625 209.992188 228.5625 209.914062 C 228.484375 209.835938 228.445312 209.742188 228.449219 209.628906 C 228.453125 209.523438 228.496094 209.433594 228.570312 209.359375 C 228.648438 209.289062 228.742188 209.25 228.847656 209.25 L 229.800781 209.25 L 229.800781 208.386719 C 229.742188 207.511719 230 206.746094 230.578125 206.085938 C 231.097656 205.59375 231.714844 205.363281 232.429688 205.394531 C 232.785156 205.390625 233.140625 205.429688 233.488281 205.515625 C 233.703125 205.558594 233.816406 205.6875 233.816406 205.910156 C 233.8125 206.035156 233.761719 206.136719 233.660156 206.210938 C 233.5625 206.285156 233.453125 206.304688 233.332031 206.273438 C 233.035156 206.210938 232.734375 206.175781 232.429688 206.167969 C 231.21875 206.167969 230.644531 206.894531 230.644531 208.398438 L 230.644531 209.246094 L 233.398438 209.246094 C 233.511719 209.246094 233.605469 209.285156 233.683594 209.363281 C 233.761719 209.441406 233.800781 209.535156 233.800781 209.644531 C 233.792969 209.75 233.753906 209.839844 233.675781 209.914062 C 233.597656 209.988281 233.507812 210.023438 233.398438 210.023438 L 230.644531 210.023438 L 230.644531 217.707031 C 230.648438 217.824219 230.613281 217.925781 230.53125 218.011719 C 230.449219 218.09375 230.347656 218.136719 230.230469 218.136719 C 230.109375 218.136719 230.007812 218.097656 229.921875 218.011719 C 229.835938 217.925781 229.792969 217.824219 229.796875 217.707031 Z M 229.804688 210.027344 " fill-opacity="1" fill-rule="nonzero"/></g><g clip-path="url(#0efc23fd91)"><path fill="#233cb5" d="M 238.394531 218.277344 C 238.097656 218.269531 237.808594 218.238281 237.519531 218.175781 C 237.230469 218.113281 236.949219 218.023438 236.679688 217.902344 C 236.410156 217.785156 236.15625 217.640625 235.914062 217.46875 C 235.671875 217.300781 235.453125 217.109375 235.25 216.894531 C 235.046875 216.679688 234.867188 216.445312 234.714844 216.195312 C 234.558594 215.945312 234.429688 215.679688 234.328125 215.40625 C 234.226562 215.128906 234.152344 214.84375 234.109375 214.554688 C 234.0625 214.261719 234.046875 213.96875 234.0625 213.675781 L 234.0625 213.640625 C 234.046875 213.351562 234.058594 213.0625 234.097656 212.777344 C 234.136719 212.488281 234.207031 212.210938 234.304688 211.9375 C 234.402344 211.664062 234.523438 211.402344 234.671875 211.152344 C 234.820312 210.90625 234.992188 210.671875 235.1875 210.460938 C 235.382812 210.246094 235.597656 210.050781 235.832031 209.878906 C 236.066406 209.710938 236.316406 209.5625 236.578125 209.441406 C 236.84375 209.320312 237.113281 209.222656 237.398438 209.15625 C 237.679688 209.089844 237.964844 209.050781 238.257812 209.039062 C 240.734375 209.039062 242.3125 211.082031 242.3125 213.605469 C 242.300781 213.714844 242.257812 213.804688 242.179688 213.882812 C 242.101562 213.957031 242.003906 214 241.894531 214.003906 L 234.964844 214.003906 C 234.964844 214.460938 235.054688 214.902344 235.234375 215.328125 C 235.410156 215.75 235.660156 216.125 235.984375 216.449219 C 236.308594 216.773438 236.683594 217.027344 237.109375 217.203125 C 237.53125 217.382812 237.972656 217.472656 238.433594 217.476562 C 239.5625 217.484375 240.515625 217.082031 241.292969 216.265625 C 241.367188 216.1875 241.460938 216.148438 241.570312 216.152344 C 241.683594 216.148438 241.78125 216.1875 241.859375 216.265625 C 241.941406 216.34375 241.984375 216.4375 241.984375 216.550781 C 241.980469 216.667969 241.933594 216.765625 241.847656 216.84375 C 241.402344 217.320312 240.882812 217.6875 240.28125 217.9375 C 239.675781 218.1875 239.050781 218.300781 238.398438 218.28125 M 241.398438 213.25 C 241.28125 211.46875 240.253906 209.824219 238.226562 209.824219 C 237.785156 209.847656 237.367188 209.953125 236.96875 210.136719 C 236.570312 210.320312 236.21875 210.570312 235.914062 210.890625 C 235.613281 211.207031 235.378906 211.570312 235.214844 211.980469 C 235.050781 212.386719 234.96875 212.808594 234.96875 213.25 Z M 241.398438 213.25 " fill-opacity="1" fill-rule="nonzero"/></g><g clip-path="url(#14c49ab5a3)"><path fill="#233cb5" d="M 243.597656 217.101562 C 243.496094 217.011719 243.445312 216.902344 243.441406 216.773438 C 243.441406 216.65625 243.484375 216.5625 243.566406 216.480469 C 243.644531 216.398438 243.742188 216.359375 243.855469 216.355469 C 243.957031 216.355469 244.050781 216.386719 244.132812 216.445312 C 245.003906 217.101562 245.988281 217.4375 247.082031 217.445312 C 248.277344 217.445312 249.210938 216.789062 249.210938 215.769531 L 249.210938 215.734375 C 249.210938 214.695312 248.101562 214.316406 246.871094 213.972656 C 245.433594 213.558594 243.839844 213.125 243.839844 211.546875 L 243.839844 211.511719 C 243.859375 211.152344 243.949219 210.8125 244.109375 210.492188 C 244.269531 210.171875 244.488281 209.894531 244.765625 209.664062 C 245.039062 209.429688 245.351562 209.265625 245.695312 209.164062 C 246.042969 209.0625 246.394531 209.03125 246.75 209.074219 C 247.769531 209.097656 248.722656 209.363281 249.609375 209.871094 C 249.753906 209.957031 249.828125 210.082031 249.832031 210.25 C 249.832031 210.363281 249.789062 210.460938 249.710938 210.542969 C 249.628906 210.621094 249.53125 210.664062 249.417969 210.664062 C 249.332031 210.664062 249.25 210.640625 249.175781 210.59375 C 248.421875 210.132812 247.605469 209.890625 246.71875 209.871094 C 245.507812 209.871094 244.710938 210.53125 244.710938 211.410156 L 244.710938 211.445312 C 244.710938 212.429688 245.90625 212.792969 247.171875 213.15625 C 248.59375 213.554688 250.082031 214.074219 250.082031 215.628906 L 250.082031 215.664062 C 250.0625 216.042969 249.96875 216.398438 249.800781 216.738281 C 249.632812 217.078125 249.40625 217.367188 249.117188 217.613281 C 248.828125 217.855469 248.503906 218.03125 248.140625 218.140625 C 247.777344 218.25 247.410156 218.285156 247.03125 218.242188 C 245.769531 218.214844 244.628906 217.835938 243.601562 217.101562 " fill-opacity="1" fill-rule="nonzero"/></g><g clip-path="url(#6ba6aab789)"><path fill="#233cb5" d="M 251.601562 217.101562 C 251.5 217.011719 251.449219 216.902344 251.445312 216.773438 C 251.445312 216.65625 251.488281 216.5625 251.566406 216.480469 C 251.648438 216.398438 251.746094 216.359375 251.859375 216.355469 C 251.960938 216.355469 252.054688 216.386719 252.136719 216.445312 C 253.007812 217.101562 253.988281 217.4375 255.082031 217.445312 C 256.277344 217.445312 257.214844 216.789062 257.214844 215.769531 L 257.214844 215.734375 C 257.214844 214.695312 256.105469 214.316406 254.875 213.972656 C 253.4375 213.558594 251.839844 213.125 251.839844 211.546875 L 251.839844 211.511719 C 251.859375 211.152344 251.949219 210.8125 252.109375 210.492188 C 252.273438 210.167969 252.488281 209.894531 252.765625 209.664062 C 253.042969 209.429688 253.351562 209.265625 253.699219 209.164062 C 254.042969 209.058594 254.394531 209.03125 254.753906 209.074219 C 255.773438 209.097656 256.726562 209.363281 257.613281 209.871094 C 257.753906 209.957031 257.832031 210.082031 257.835938 210.25 C 257.835938 210.363281 257.792969 210.460938 257.710938 210.542969 C 257.632812 210.621094 257.535156 210.664062 257.421875 210.664062 C 257.332031 210.664062 257.253906 210.640625 257.179688 210.59375 C 256.421875 210.128906 255.601562 209.886719 254.714844 209.871094 C 253.503906 209.871094 252.707031 210.527344 252.707031 211.40625 L 252.707031 211.441406 C 252.707031 212.429688 253.902344 212.789062 255.167969 213.152344 C 256.589844 213.550781 258.078125 214.070312 258.078125 215.625 L 258.078125 215.660156 C 258.058594 216.039062 257.964844 216.394531 257.796875 216.734375 C 257.628906 217.074219 257.402344 217.363281 257.113281 217.609375 C 256.824219 217.851562 256.5 218.027344 256.136719 218.136719 C 255.773438 218.246094 255.40625 218.28125 255.027344 218.238281 C 253.765625 218.210938 252.625 217.832031 251.597656 217.097656 " fill-opacity="1" fill-rule="nonzero"/></g><g clip-path="url(#4bbbe423dd)"><path fill="#233cb5" d="M 259.984375 206.222656 C 259.980469 206.078125 260.03125 205.957031 260.132812 205.855469 C 260.234375 205.753906 260.359375 205.703125 260.503906 205.707031 C 260.648438 205.703125 260.777344 205.75 260.878906 205.851562 C 260.984375 205.953125 261.039062 206.078125 261.039062 206.222656 L 261.039062 206.519531 C 261.039062 206.664062 260.984375 206.789062 260.878906 206.890625 C 260.777344 206.992188 260.648438 207.039062 260.503906 207.035156 C 260.359375 207.039062 260.234375 206.988281 260.132812 206.886719 C 260.03125 206.785156 259.980469 206.664062 259.984375 206.519531 Z M 260.089844 209.613281 C 260.089844 209.496094 260.128906 209.394531 260.210938 209.3125 C 260.296875 209.230469 260.394531 209.1875 260.511719 209.1875 C 260.628906 209.1875 260.730469 209.230469 260.8125 209.3125 C 260.894531 209.394531 260.9375 209.496094 260.9375 209.613281 L 260.9375 217.703125 C 260.945312 217.824219 260.910156 217.925781 260.824219 218.011719 C 260.742188 218.097656 260.640625 218.140625 260.523438 218.136719 C 260.402344 218.140625 260.296875 218.101562 260.210938 218.015625 C 260.125 217.929688 260.085938 217.824219 260.089844 217.703125 Z M 260.089844 209.613281 " fill-opacity="1" fill-rule="nonzero"/></g><g clip-path="url(#edc39f9fd6)"><path fill="#233cb5" d="M 262.957031 213.695312 L 262.957031 213.660156 C 262.953125 213.359375 262.980469 213.058594 263.035156 212.761719 C 263.089844 212.46875 263.175781 212.179688 263.289062 211.898438 C 263.398438 211.621094 263.539062 211.355469 263.703125 211.101562 C 263.871094 210.851562 264.058594 210.617188 264.269531 210.402344 C 264.484375 210.1875 264.714844 209.996094 264.964844 209.828125 C 265.214844 209.65625 265.476562 209.515625 265.757812 209.398438 C 266.035156 209.28125 266.320312 209.191406 266.617188 209.132812 C 266.914062 209.074219 267.214844 209.042969 267.515625 209.042969 C 267.816406 209.042969 268.113281 209.070312 268.40625 209.128906 C 268.699219 209.1875 268.984375 209.277344 269.261719 209.390625 C 269.539062 209.507812 269.800781 209.648438 270.050781 209.816406 C 270.296875 209.984375 270.527344 210.175781 270.738281 210.386719 C 270.949219 210.601562 271.136719 210.832031 271.300781 211.082031 C 271.464844 211.335938 271.601562 211.597656 271.714844 211.875 C 271.824219 212.152344 271.910156 212.441406 271.960938 212.734375 C 272.015625 213.027344 272.042969 213.324219 272.035156 213.625 L 272.035156 213.660156 C 272.039062 213.960938 272.015625 214.261719 271.960938 214.554688 C 271.90625 214.851562 271.820312 215.140625 271.707031 215.421875 C 271.59375 215.699219 271.457031 215.964844 271.289062 216.21875 C 271.125 216.46875 270.9375 216.703125 270.722656 216.917969 C 270.511719 217.132812 270.28125 217.324219 270.03125 217.492188 C 269.78125 217.664062 269.515625 217.804688 269.238281 217.921875 C 268.960938 218.039062 268.671875 218.125 268.375 218.1875 C 268.082031 218.246094 267.78125 218.277344 267.480469 218.277344 C 267.179688 218.277344 266.882812 218.246094 266.589844 218.1875 C 266.292969 218.128906 266.007812 218.042969 265.730469 217.925781 C 265.453125 217.8125 265.191406 217.671875 264.945312 217.503906 C 264.695312 217.335938 264.464844 217.144531 264.253906 216.929688 C 264.046875 216.71875 263.859375 216.484375 263.695312 216.234375 C 263.527344 215.984375 263.390625 215.722656 263.28125 215.441406 C 263.167969 215.164062 263.085938 214.878906 263.03125 214.585938 C 262.976562 214.289062 262.953125 213.992188 262.957031 213.695312 M 271.117188 213.695312 L 271.117188 213.660156 C 271.132812 213.164062 271.054688 212.683594 270.878906 212.222656 C 270.703125 211.757812 270.441406 211.347656 270.101562 210.988281 C 269.757812 210.628906 269.359375 210.347656 268.90625 210.148438 C 268.453125 209.949219 267.976562 209.847656 267.480469 209.839844 C 267.234375 209.839844 266.992188 209.867188 266.753906 209.917969 C 266.515625 209.96875 266.285156 210.042969 266.0625 210.140625 C 265.839844 210.238281 265.625 210.355469 265.425781 210.496094 C 265.226562 210.636719 265.042969 210.792969 264.875 210.972656 C 264.707031 211.148438 264.558594 211.339844 264.429688 211.546875 C 264.296875 211.753906 264.191406 211.96875 264.105469 212.195312 C 264.019531 212.425781 263.957031 212.660156 263.917969 212.898438 C 263.878906 213.140625 263.867188 213.382812 263.875 213.625 L 263.875 213.660156 C 263.859375 214.15625 263.9375 214.632812 264.113281 215.097656 C 264.289062 215.5625 264.550781 215.972656 264.890625 216.332031 C 265.234375 216.691406 265.632812 216.96875 266.085938 217.171875 C 266.542969 217.371094 267.015625 217.472656 267.515625 217.480469 C 267.757812 217.480469 268 217.453125 268.238281 217.402344 C 268.476562 217.351562 268.707031 217.277344 268.929688 217.179688 C 269.15625 217.082031 269.367188 216.964844 269.566406 216.824219 C 269.765625 216.683594 269.949219 216.527344 270.117188 216.347656 C 270.285156 216.171875 270.433594 215.980469 270.566406 215.773438 C 270.695312 215.570312 270.800781 215.351562 270.886719 215.125 C 270.972656 214.894531 271.035156 214.660156 271.074219 214.421875 C 271.113281 214.179688 271.128906 213.9375 271.117188 213.695312 " fill-opacity="1" fill-rule="nonzero"/></g><g clip-path="url(#0e9e676b35)"><path fill="#233cb5" d="M 274.039062 209.613281 C 274.039062 209.496094 274.082031 209.394531 274.164062 209.3125 C 274.246094 209.230469 274.347656 209.1875 274.464844 209.1875 C 274.582031 209.1875 274.683594 209.230469 274.765625 209.3125 C 274.847656 209.394531 274.890625 209.496094 274.890625 209.613281 L 274.890625 210.890625 C 275.199219 210.304688 275.640625 209.84375 276.214844 209.507812 C 276.792969 209.175781 277.414062 209.019531 278.078125 209.046875 C 278.316406 209.03125 278.554688 209.042969 278.792969 209.082031 C 279.03125 209.121094 279.261719 209.183594 279.484375 209.269531 C 279.710938 209.359375 279.921875 209.46875 280.121094 209.601562 C 280.320312 209.734375 280.503906 209.886719 280.671875 210.058594 C 280.839844 210.230469 280.988281 210.417969 281.113281 210.621094 C 281.242188 210.824219 281.347656 211.039062 281.425781 211.265625 C 281.507812 211.492188 281.566406 211.722656 281.597656 211.960938 C 281.628906 212.199219 281.632812 212.4375 281.613281 212.675781 L 281.613281 217.707031 C 281.621094 217.828125 281.582031 217.929688 281.5 218.015625 C 281.417969 218.101562 281.316406 218.144531 281.199219 218.140625 C 281.078125 218.144531 280.972656 218.101562 280.886719 218.015625 C 280.800781 217.933594 280.757812 217.828125 280.765625 217.707031 L 280.765625 212.832031 C 280.785156 212.640625 280.789062 212.445312 280.769531 212.25 C 280.75 212.054688 280.710938 211.863281 280.648438 211.679688 C 280.589844 211.492188 280.507812 211.316406 280.410156 211.148438 C 280.308594 210.980469 280.191406 210.824219 280.058594 210.679688 C 279.925781 210.535156 279.777344 210.410156 279.617188 210.296875 C 279.453125 210.1875 279.285156 210.09375 279.101562 210.019531 C 278.921875 209.949219 278.734375 209.894531 278.539062 209.859375 C 278.347656 209.828125 278.152344 209.816406 277.957031 209.824219 C 277.539062 209.820312 277.140625 209.898438 276.757812 210.054688 C 276.371094 210.214844 276.035156 210.445312 275.746094 210.742188 C 275.453125 211.039062 275.234375 211.382812 275.085938 211.769531 C 274.9375 212.15625 274.871094 212.558594 274.890625 212.972656 L 274.890625 217.707031 C 274.898438 217.824219 274.859375 217.925781 274.777344 218.011719 C 274.695312 218.097656 274.59375 218.140625 274.472656 218.136719 C 274.351562 218.140625 274.25 218.101562 274.164062 218.015625 C 274.078125 217.929688 274.035156 217.828125 274.039062 217.707031 Z M 274.039062 209.613281 " fill-opacity="1" fill-rule="nonzero"/></g><g clip-path="url(#b91010c8c6)"><path fill="#233cb5" d="M 283.324219 215.507812 L 283.324219 215.472656 C 283.324219 213.640625 284.898438 212.605469 287.1875 212.605469 C 288.179688 212.59375 289.15625 212.71875 290.113281 212.984375 L 290.113281 212.605469 C 290.128906 212.414062 290.121094 212.226562 290.09375 212.035156 C 290.0625 211.847656 290.015625 211.667969 289.945312 211.488281 C 289.875 211.3125 289.785156 211.144531 289.679688 210.988281 C 289.570312 210.832031 289.449219 210.6875 289.308594 210.558594 C 289.167969 210.429688 289.015625 210.316406 288.851562 210.21875 C 288.6875 210.125 288.511719 210.050781 288.328125 209.992188 C 288.148438 209.9375 287.960938 209.902344 287.773438 209.886719 C 287.582031 209.871094 287.390625 209.878906 287.203125 209.90625 C 286.320312 209.910156 285.484375 210.105469 284.691406 210.492188 C 284.632812 210.527344 284.566406 210.542969 284.5 210.546875 C 284.390625 210.542969 284.300781 210.5 284.222656 210.425781 C 284.148438 210.347656 284.105469 210.253906 284.101562 210.148438 C 284.105469 209.972656 284.1875 209.84375 284.34375 209.769531 C 285.265625 209.332031 286.238281 209.113281 287.253906 209.109375 C 288.320312 209.042969 289.25 209.367188 290.046875 210.078125 C 290.703125 210.78125 291.003906 211.609375 290.945312 212.570312 L 290.945312 217.703125 C 290.953125 217.824219 290.914062 217.925781 290.832031 218.011719 C 290.75 218.097656 290.652344 218.140625 290.53125 218.140625 C 290.410156 218.140625 290.3125 218.097656 290.230469 218.011719 C 290.148438 217.925781 290.109375 217.824219 290.113281 217.703125 L 290.113281 216.597656 C 289.726562 217.140625 289.234375 217.558594 288.636719 217.855469 C 288.039062 218.152344 287.40625 218.292969 286.738281 218.273438 C 285.089844 218.273438 283.324219 217.339844 283.324219 215.503906 M 290.132812 214.761719 L 290.132812 213.757812 C 289.152344 213.496094 288.152344 213.363281 287.136719 213.359375 C 285.265625 213.359375 284.226562 214.191406 284.226562 215.417969 L 284.226562 215.453125 C 284.226562 216.730469 285.4375 217.472656 286.789062 217.472656 C 288.589844 217.472656 290.132812 216.367188 290.132812 214.757812 " fill-opacity="1" fill-rule="nonzero"/></g><g clip-path="url(#2632f0981c)"><path fill="#233cb5" d="M 293.476562 205.808594 C 293.46875 205.691406 293.507812 205.589844 293.589844 205.503906 C 293.671875 205.417969 293.773438 205.375 293.890625 205.375 C 294.011719 205.375 294.113281 205.417969 294.199219 205.503906 C 294.285156 205.585938 294.324219 205.691406 294.324219 205.808594 L 294.324219 217.703125 C 294.332031 217.824219 294.296875 217.925781 294.214844 218.011719 C 294.128906 218.097656 294.027344 218.140625 293.910156 218.136719 C 293.789062 218.140625 293.683594 218.101562 293.597656 218.015625 C 293.511719 217.929688 293.472656 217.824219 293.476562 217.703125 Z M 293.476562 205.808594 " fill-opacity="1" fill-rule="nonzero"/></g><g clip-path="url(#13d89db168)"><path fill="#233cb5" d="M 296.277344 217.101562 C 296.175781 217.011719 296.125 216.902344 296.121094 216.773438 C 296.121094 216.65625 296.164062 216.5625 296.242188 216.480469 C 296.324219 216.398438 296.421875 216.359375 296.535156 216.355469 C 296.636719 216.355469 296.730469 216.386719 296.8125 216.445312 C 297.683594 217.101562 298.667969 217.4375 299.757812 217.445312 C 300.953125 217.445312 301.890625 216.789062 301.890625 215.769531 L 301.890625 215.734375 C 301.890625 214.695312 300.78125 214.316406 299.550781 213.972656 C 298.113281 213.558594 296.519531 213.125 296.519531 211.546875 L 296.519531 211.511719 C 296.535156 211.152344 296.628906 210.8125 296.789062 210.492188 C 296.949219 210.171875 297.167969 209.894531 297.441406 209.664062 C 297.71875 209.429688 298.03125 209.265625 298.375 209.164062 C 298.71875 209.0625 299.070312 209.03125 299.429688 209.074219 C 300.449219 209.097656 301.402344 209.363281 302.289062 209.871094 C 302.433594 209.957031 302.507812 210.082031 302.511719 210.25 C 302.511719 210.363281 302.46875 210.460938 302.390625 210.542969 C 302.308594 210.621094 302.210938 210.664062 302.097656 210.664062 C 302.007812 210.664062 301.929688 210.640625 301.855469 210.59375 C 301.101562 210.128906 300.277344 209.886719 299.394531 209.871094 C 298.179688 209.871094 297.382812 210.527344 297.382812 211.40625 L 297.382812 211.441406 C 297.382812 212.429688 298.578125 212.789062 299.84375 213.152344 C 301.265625 213.550781 302.753906 214.070312 302.753906 215.625 L 302.753906 215.660156 C 302.734375 216.039062 302.640625 216.394531 302.472656 216.734375 C 302.304688 217.074219 302.078125 217.363281 301.789062 217.609375 C 301.5 217.851562 301.175781 218.027344 300.8125 218.136719 C 300.449219 218.246094 300.082031 218.28125 299.707031 218.238281 C 298.441406 218.210938 297.300781 217.832031 296.273438 217.097656 " fill-opacity="1" fill-rule="nonzero"/></g><g clip-path="url(#ac0d939aa8)"><path fill="#233cb5" d="M 356.164062 167.101562 L 356.164062 167.074219 C 356.167969 166.761719 356.203125 166.449219 356.265625 166.144531 C 356.332031 165.835938 356.425781 165.539062 356.546875 165.25 C 356.671875 164.960938 356.820312 164.6875 356.996094 164.429688 C 357.171875 164.171875 357.371094 163.929688 357.59375 163.710938 C 357.816406 163.488281 358.058594 163.292969 358.320312 163.121094 C 358.582031 162.945312 358.859375 162.800781 359.148438 162.679688 C 359.441406 162.5625 359.738281 162.46875 360.046875 162.410156 C 360.355469 162.347656 360.664062 162.316406 360.980469 162.316406 C 361.292969 162.316406 361.605469 162.34375 361.914062 162.402344 C 362.222656 162.464844 362.519531 162.550781 362.8125 162.671875 C 363.101562 162.789062 363.378906 162.933594 363.640625 163.105469 C 363.902344 163.277344 364.148438 163.472656 364.371094 163.691406 C 364.597656 163.910156 364.796875 164.148438 364.976562 164.40625 C 365.152344 164.667969 365.304688 164.9375 365.429688 165.226562 C 365.550781 165.515625 365.648438 165.8125 365.714844 166.117188 C 365.78125 166.425781 365.816406 166.734375 365.820312 167.046875 L 365.820312 167.074219 C 365.816406 167.386719 365.785156 167.695312 365.71875 168.003906 C 365.65625 168.308594 365.5625 168.609375 365.4375 168.894531 C 365.316406 169.183594 365.164062 169.457031 364.988281 169.71875 C 364.8125 169.976562 364.613281 170.214844 364.390625 170.4375 C 364.167969 170.65625 363.925781 170.855469 363.664062 171.027344 C 363.402344 171.199219 363.125 171.347656 362.835938 171.464844 C 362.546875 171.585938 362.246094 171.675781 361.9375 171.738281 C 361.628906 171.800781 361.320312 171.832031 361.003906 171.832031 C 360.691406 171.832031 360.378906 171.804688 360.074219 171.742188 C 359.765625 171.683594 359.464844 171.59375 359.171875 171.476562 C 358.882812 171.359375 358.605469 171.214844 358.34375 171.042969 C 358.082031 170.871094 357.835938 170.675781 357.613281 170.457031 C 357.390625 170.238281 357.1875 169.996094 357.011719 169.738281 C 356.832031 169.480469 356.679688 169.207031 356.558594 168.921875 C 356.433594 168.632812 356.335938 168.335938 356.269531 168.027344 C 356.207031 167.722656 356.167969 167.414062 356.164062 167.101562 M 365.207031 167.074219 L 365.207031 167.046875 C 365.207031 166.773438 365.179688 166.496094 365.125 166.226562 C 365.070312 165.953125 364.992188 165.691406 364.882812 165.4375 C 364.777344 165.179688 364.648438 164.9375 364.492188 164.707031 C 364.339844 164.480469 364.164062 164.265625 363.96875 164.070312 C 363.769531 163.875 363.558594 163.703125 363.328125 163.546875 C 363.097656 163.394531 362.851562 163.265625 362.597656 163.160156 C 362.339844 163.054688 362.074219 162.976562 361.804688 162.921875 C 361.53125 162.871094 361.257812 162.84375 360.980469 162.84375 C 360.703125 162.84375 360.425781 162.871094 360.15625 162.929688 C 359.882812 162.984375 359.621094 163.0625 359.363281 163.171875 C 359.109375 163.277344 358.867188 163.40625 358.636719 163.5625 C 358.40625 163.71875 358.195312 163.890625 358 164.089844 C 357.804688 164.285156 357.628906 164.5 357.476562 164.730469 C 357.324219 164.960938 357.195312 165.203125 357.089844 165.460938 C 356.984375 165.714844 356.90625 165.980469 356.851562 166.25 C 356.800781 166.523438 356.773438 166.796875 356.777344 167.074219 L 356.777344 167.097656 C 356.777344 167.375 356.804688 167.648438 356.859375 167.921875 C 356.914062 168.191406 356.992188 168.457031 357.097656 168.710938 C 357.207031 168.964844 357.335938 169.207031 357.492188 169.4375 C 357.644531 169.667969 357.820312 169.878906 358.015625 170.074219 C 358.210938 170.269531 358.425781 170.445312 358.65625 170.597656 C 358.886719 170.75 359.132812 170.882812 359.386719 170.988281 C 359.644531 171.089844 359.910156 171.171875 360.179688 171.222656 C 360.453125 171.277344 360.726562 171.304688 361.003906 171.300781 C 361.28125 171.300781 361.554688 171.273438 361.828125 171.21875 C 362.101562 171.164062 362.363281 171.082031 362.621094 170.976562 C 362.875 170.871094 363.117188 170.738281 363.347656 170.585938 C 363.578125 170.429688 363.789062 170.253906 363.984375 170.058594 C 364.179688 169.863281 364.355469 169.648438 364.507812 169.417969 C 364.660156 169.1875 364.789062 168.941406 364.894531 168.6875 C 365 168.429688 365.078125 168.167969 365.128906 167.894531 C 365.183594 167.625 365.207031 167.351562 365.207031 167.074219 M 359.140625 164.785156 C 359.136719 164.707031 359.164062 164.640625 359.21875 164.585938 C 359.273438 164.53125 359.339844 164.503906 359.417969 164.503906 L 361.328125 164.503906 C 361.867188 164.480469 362.34375 164.644531 362.753906 165 C 363.003906 165.246094 363.128906 165.550781 363.125 165.902344 L 363.125 165.929688 C 363.121094 166.109375 363.085938 166.28125 363.015625 166.445312 C 362.949219 166.609375 362.851562 166.757812 362.730469 166.886719 C 362.605469 167.015625 362.464844 167.117188 362.300781 167.195312 C 362.140625 167.269531 361.972656 167.3125 361.792969 167.328125 L 363.074219 168.945312 C 363.125 169.003906 363.152344 169.074219 363.152344 169.15625 C 363.152344 169.234375 363.121094 169.304688 363.066406 169.359375 C 363.007812 169.414062 362.941406 169.4375 362.859375 169.4375 C 362.75 169.4375 362.667969 169.394531 362.605469 169.304688 L 361.125 167.425781 L 359.710938 167.425781 L 359.710938 169.15625 C 359.710938 169.238281 359.679688 169.304688 359.625 169.359375 C 359.566406 169.414062 359.496094 169.441406 359.417969 169.4375 C 359.339844 169.4375 359.273438 169.414062 359.21875 169.359375 C 359.164062 169.300781 359.136719 169.234375 359.140625 169.15625 Z M 361.234375 166.886719 C 361.964844 166.886719 362.527344 166.566406 362.527344 165.957031 L 362.527344 165.929688 C 362.527344 165.398438 362.0625 165.050781 361.300781 165.050781 L 359.710938 165.050781 L 359.710938 166.886719 Z M 361.234375 166.886719 " fill-opacity="1" fill-rule="nonzero"/></g></svg>