<svg xmlns="http://www.w3.org/2000/svg" xmlns:xlink="http://www.w3.org/1999/xlink" width="500" zoomAndPan="magnify" viewBox="0 0 375 374.999991" height="500" preserveAspectRatio="xMidYMid meet" version="1.0"><defs><clipPath id="310fe8a3f5"><path d="M 11.90625 136.085938 L 362.90625 136.085938 L 362.90625 238.835938 L 11.90625 238.835938 Z M 11.90625 136.085938 " clip-rule="nonzero"/></clipPath><clipPath id="ccc91309e7"><path d="M 25 136.085938 L 353 136.085938 L 353 232 L 25 232 Z M 25 136.085938 " clip-rule="nonzero"/></clipPath></defs><rect x="-37.5" width="450" fill="#ffffff" y="-37.499999" height="449.999989" fill-opacity="1"/><rect x="-37.5" width="450" fill="#ffffff" y="-37.499999" height="449.999989" fill-opacity="1"/><g clip-path="url(#310fe8a3f5)"><path fill="#e7002a" d="M 11.941406 136.085938 L 362.875 136.085938 L 362.875 238.835938 L 11.941406 238.835938 Z M 11.941406 136.085938 " fill-opacity="1" fill-rule="nonzero"/></g><g clip-path="url(#ccc91309e7)"><path fill="#ffffff" d="M 131.699219 136.085938 L 147.253906 136.085938 L 147.253906 157.277344 L 131.699219 157.277344 Z M 180.890625 170.953125 C 174.820312 170.953125 170.371094 172.664062 166.78125 177.714844 L 166.78125 171.878906 L 151.128906 171.878906 L 151.128906 215.585938 L 166.691406 215.585938 L 166.691406 193.414062 C 166.691406 188.199219 168.816406 182.921875 174.8125 182.921875 C 182.503906 182.921875 181.824219 189.777344 181.824219 193.769531 L 181.824219 215.585938 L 197.382812 215.585938 L 197.382812 188.3125 C 197.382812 178.039062 192.679688 170.953125 180.882812 170.953125 M 131.699219 206.40625 L 131.699219 215.585938 L 147.253906 215.585938 L 147.253906 171.835938 L 131.699219 171.835938 Z M 129.40625 194.832031 L 129.40625 198.851562 L 96.578125 198.851562 C 96.578125 202.746094 99.621094 205.566406 103.597656 206.40625 C 104.429688 206.582031 105.273438 206.667969 106.125 206.667969 C 106.972656 206.671875 107.8125 206.582031 108.640625 206.40625 C 109.25 206.300781 109.835938 206.125 110.402344 205.875 C 110.964844 205.621094 111.488281 205.304688 111.96875 204.917969 C 112.453125 204.53125 112.875 204.089844 113.246094 203.59375 C 113.613281 203.101562 113.914062 202.566406 114.148438 201.996094 L 128.808594 201.996094 C 128.425781 203.546875 127.847656 205.019531 127.070312 206.414062 C 123.152344 213.414062 114.851562 216.640625 106.433594 216.640625 C 96.742188 216.640625 88.683594 213.105469 84.367188 206.414062 C 82.894531 204.097656 81.914062 201.585938 81.421875 198.886719 L 77.015625 198.886719 L 77.015625 215.617188 L 59.238281 215.617188 L 59.238281 198.882812 L 43.058594 198.882812 L 43.058594 215.617188 L 25.050781 215.617188 L 25.050781 171.808594 L 43.058594 171.808594 L 43.058594 187.816406 L 59.238281 187.816406 L 59.238281 171.808594 L 77.015625 171.808594 L 77.015625 187.816406 L 81.652344 187.816406 C 84.339844 176.382812 93.191406 170.496094 105.320312 170.496094 C 121.382812 170.496094 129.40625 182.058594 129.40625 194.828125 M 113.554688 187.980469 C 113.449219 187.527344 113.304688 187.082031 113.121094 186.652344 C 112.9375 186.21875 112.722656 185.808594 112.46875 185.414062 C 112.21875 185.015625 111.9375 184.644531 111.621094 184.296875 C 111.308594 183.949219 110.96875 183.632812 110.601562 183.339844 C 110.234375 183.050781 109.84375 182.792969 109.433594 182.566406 C 109.023438 182.34375 108.597656 182.152344 108.15625 182 C 107.710938 181.84375 107.261719 181.730469 106.796875 181.652344 C 106.335938 181.574219 105.871094 181.535156 105.402344 181.535156 C 104.933594 181.535156 104.46875 181.574219 104.007812 181.652344 C 103.546875 181.730469 103.09375 181.84375 102.652344 182 C 102.210938 182.152344 101.785156 182.34375 101.371094 182.566406 C 100.960938 182.792969 100.574219 183.050781 100.207031 183.339844 C 99.839844 183.632812 99.5 183.949219 99.183594 184.296875 C 98.871094 184.644531 98.585938 185.015625 98.335938 185.414062 C 98.085938 185.808594 97.867188 186.21875 97.6875 186.652344 C 97.503906 187.082031 97.359375 187.527344 97.25 187.980469 Z M 201.039062 206.40625 L 201.039062 215.585938 L 216.75 215.585938 L 216.75 171.835938 L 201.039062 171.835938 Z M 350.15625 171.851562 C 344.757812 171.851562 340.066406 171.695312 336.125 179.144531 L 335.953125 179.554688 L 335.953125 171.761719 L 320.246094 171.761719 L 320.246094 215.585938 L 336.550781 215.585938 L 336.550781 197.199219 C 336.550781 190.109375 338.066406 185.039062 346.605469 185.039062 C 348.671875 184.960938 350.640625 185.367188 352.507812 186.253906 L 352.507812 172.003906 Z M 318.171875 195.179688 L 318.171875 199.171875 L 285.519531 199.171875 C 285.503906 199.980469 285.617188 200.773438 285.863281 201.546875 C 286.105469 202.316406 286.46875 203.03125 286.945312 203.683594 C 287.425781 204.335938 287.996094 204.898438 288.65625 205.363281 C 289.320312 205.828125 290.039062 206.175781 290.816406 206.40625 C 291.921875 206.761719 293.054688 206.9375 294.21875 206.925781 C 295.542969 206.949219 296.847656 206.777344 298.121094 206.40625 C 299.183594 206.097656 300.136719 205.585938 300.980469 204.867188 C 301.820312 204.148438 302.476562 203.285156 302.945312 202.285156 L 317.582031 202.285156 C 317.234375 203.722656 316.71875 205.09375 316.03125 206.40625 C 312.210938 213.703125 303.730469 217.46875 294.300781 217.46875 C 283.78125 217.46875 276.5625 213.378906 272.734375 206.40625 C 271.488281 204.09375 270.625 201.648438 270.144531 199.070312 L 266.324219 199.070312 L 266.324219 208.726562 C 266.324219 220.453125 264.914062 231.167969 242.488281 231.167969 C 231.726562 231.167969 222.347656 227.09375 221.082031 216.503906 L 237.144531 216.503906 C 237.539062 217.914062 238.046875 221.273438 243.894531 221.273438 C 249.191406 221.273438 251.753906 217.777344 251.753906 211.265625 L 251.753906 209.179688 C 248.027344 212.867188 244.074219 213.828125 238.683594 213.828125 C 230.980469 213.828125 225.890625 210.953125 222.890625 206.398438 C 221.664062 204.363281 220.757812 202.191406 220.164062 199.886719 C 219.574219 197.585938 219.320312 195.246094 219.414062 192.867188 C 219.414062 181.097656 227.039062 171.058594 239.476562 171.058594 C 240.589844 170.996094 241.699219 171.066406 242.796875 171.269531 C 243.898438 171.472656 244.957031 171.804688 245.976562 172.261719 C 246.996094 172.714844 247.949219 173.289062 248.832031 173.972656 C 249.714844 174.65625 250.503906 175.433594 251.203125 176.308594 L 251.203125 172.398438 L 266.320312 172.398438 L 266.320312 188.402344 L 270.292969 188.402344 C 272.671875 177.824219 281.171875 171.175781 293.203125 171.175781 C 308.242188 171.175781 318.179688 180.726562 318.179688 195.1875 M 251.4375 192.035156 C 251.4375 187.035156 248.453125 182.832031 243.316406 182.832031 C 238.179688 182.832031 235.199219 187.035156 235.199219 192.035156 C 235.199219 192.269531 235.199219 193.800781 235.21875 194.03125 C 235.476562 198.839844 238.417969 202.453125 243.316406 202.453125 C 248.21875 202.453125 251.1875 198.808594 251.421875 193.960938 C 251.433594 193.753906 251.4375 192.246094 251.4375 192.035156 M 302.132812 188.734375 C 302.046875 188.265625 301.921875 187.804688 301.757812 187.355469 C 301.589844 186.90625 301.386719 186.472656 301.144531 186.058594 C 300.90625 185.644531 300.628906 185.253906 300.320312 184.890625 C 300.011719 184.523438 299.675781 184.1875 299.308594 183.878906 C 298.9375 183.570312 298.546875 183.296875 298.132812 183.058594 C 297.71875 182.820312 297.285156 182.621094 296.835938 182.457031 C 296.382812 182.292969 295.921875 182.171875 295.449219 182.085938 C 294.980469 182.003906 294.503906 181.960938 294.023438 181.960938 C 293.546875 181.960938 293.070312 182.003906 292.597656 182.085938 C 292.125 182.171875 291.664062 182.292969 291.214844 182.457031 C 290.765625 182.621094 290.332031 182.820312 289.914062 183.058594 C 289.5 183.296875 289.109375 183.570312 288.742188 183.878906 C 288.375 184.1875 288.035156 184.523438 287.726562 184.890625 C 287.417969 185.253906 287.144531 185.644531 286.902344 186.058594 C 286.660156 186.472656 286.457031 186.90625 286.292969 187.355469 C 286.125 187.804688 286 188.265625 285.917969 188.734375 Z M 201.039062 157.742188 L 216.75 157.742188 L 216.75 136.085938 L 201.039062 136.085938 Z M 201.039062 157.742188 " fill-opacity="1" fill-rule="nonzero"/></g></svg>